<svg xmlns="http://www.w3.org/2000/svg" viewBox="0 0 54.0552 63.4898"><defs><style>.a{fill:#f26d79;stroke-width:1.3915px;}.a,.b,.c,.d,.g,.h{stroke:#231f20;}.a,.b,.c,.d,.f,.g,.h{stroke-linecap:round;stroke-linejoin:round;}.b,.c{fill:#fdf5a6;}.b,.f,.g,.h{stroke-width:1.3918px;}.b,.e,.f,.g{fill-rule:evenodd;}.c{stroke-width:1.5931px;}.d,.f,.h{fill:none;}.d{stroke-width:1.3921px;}.e,.g{fill:#231f20;}.f{stroke:#f26971;}</style></defs><path class="a" d="M5.7665.6959H51.1348a2.2246,2.2246,0,0,1,2.2246,2.2246V60.5693a2.2246,2.2246,0,0,1-2.2246,2.2246H5.7666A2.2244,2.2244,0,0,1,3.5422,60.57V2.92A2.2243,2.2243,0,0,1,5.7665.6959Z"/><path class="b" d="M5.766.6959h5.5953v62.098H5.766A2.23,2.23,0,0,1,3.5422,60.57V2.92A2.2308,2.2308,0,0,1,5.766.6959Z"/><path class="c" d="M18.3646,13.4589h27.65A1.7212,1.7212,0,0,1,47.7361,15.18V29.1282a1.7212,1.7212,0,0,1-1.7212,1.7212h-27.65a1.7212,1.7212,0,0,1-1.7212-1.7212V15.18A1.7209,1.7209,0,0,1,18.3646,13.4589Z"/><line class="d" x1="0.696" y1="5.3342" x2="6.9733" y2="5.3342"/><line class="d" x1="0.696" y1="10.6163" x2="6.9733" y2="10.6163"/><line class="d" x1="0.696" y1="15.8986" x2="6.9733" y2="15.8986"/><line class="d" x1="0.696" y1="21.1807" x2="6.9733" y2="21.1807"/><line class="d" x1="0.696" y1="26.4628" x2="6.9733" y2="26.4628"/><line class="d" x1="0.696" y1="31.7449" x2="6.9733" y2="31.7449"/><line class="d" x1="0.696" y1="37.0272" x2="6.9733" y2="37.0272"/><line class="d" x1="0.696" y1="42.3093" x2="6.9733" y2="42.3093"/><line class="d" x1="0.696" y1="47.5914" x2="6.9733" y2="47.5914"/><line class="d" x1="0.696" y1="52.8735" x2="6.9733" y2="52.8735"/><line class="d" x1="0.696" y1="58.1558" x2="6.9733" y2="58.1558"/><path class="e" d="M22.3515,21.7862a1.5754,1.5754,0,1,0-1.5755-1.5755A1.5784,1.5784,0,0,0,22.3515,21.7862Z"/><path class="f" d="M23.6056,23.7934h-2.51A1.6813,1.6813,0,0,1,23.6056,23.7934Z"/><path class="f" d="M40.773,23.7934h2.51A1.6813,1.6813,0,0,0,40.773,23.7934Z"/><path class="e" d="M42.0291,21.7862a1.5754,1.5754,0,1,0-1.5755-1.5755A1.5784,1.5784,0,0,0,42.0291,21.7862Z"/><path class="g" d="M26.7447,23.2307h10.89A7.2936,7.2936,0,0,1,26.7447,23.2307Z"/><path class="g" d="M7.1505,6.2183a.862.862,0,1,0-.8621-.862A.8634.8634,0,0,0,7.1505,6.2183Z"/><path class="g" d="M7.1505,11.5018a.8619.8619,0,1,0-.8621-.862A.8634.8634,0,0,0,7.1505,11.5018Z"/><path class="g" d="M7.1505,16.7842a.8621.8621,0,1,0-.8621-.862A.8634.8634,0,0,0,7.1505,16.7842Z"/><path class="g" d="M7.1505,22.0663a.8621.8621,0,1,0-.8621-.8621A.8635.8635,0,0,0,7.1505,22.0663Z"/><path class="g" d="M7.1505,27.3483a.8619.8619,0,1,0-.8621-.862A.8634.8634,0,0,0,7.1505,27.3483Z"/><path class="g" d="M7.1505,32.6307a.862.862,0,1,0-.8621-.862A.8634.8634,0,0,0,7.1505,32.6307Z"/><path class="g" d="M7.1505,37.9128a.8621.8621,0,1,0-.8621-.862A.8634.8634,0,0,0,7.1505,37.9128Z"/><path class="g" d="M7.1505,43.1949a.8619.8619,0,1,0-.8621-.8621A.8635.8635,0,0,0,7.1505,43.1949Z"/><path class="g" d="M7.1505,48.4769a.8619.8619,0,1,0-.8621-.862A.8634.8634,0,0,0,7.1505,48.4769Z"/><path class="g" d="M7.1505,53.7593a.862.862,0,1,0-.8621-.862A.8634.8634,0,0,0,7.1505,53.7593Z"/><path class="g" d="M7.1505,59.0414a.8621.8621,0,1,0-.8621-.862A.8634.8634,0,0,0,7.1505,59.0414Z"/><line class="h" x1="21.0198" y1="36.5332" x2="43.3588" y2="36.5332"/><line class="h" x1="21.0198" y1="40.3956" x2="43.3588" y2="40.3956"/></svg>