<svg xmlns="http://www.w3.org/2000/svg" viewBox="0 0 71.1961 82.0455"><defs><style>.a{fill:#b3e4fa;}.a,.b,.c,.d,.g,.h,.i{stroke:#231f20;}.a,.b{stroke-miterlimit:2.6131;}.a,.d{stroke-width:1.3915px;}.b{fill:#a0d7c7;}.b,.f,.i{stroke-width:1.3921px;}.b,.c,.d,.e,.f,.h,.i,.j{fill-rule:evenodd;}.c,.d,.e,.f,.j{fill:none;}.c,.d,.e,.f,.g,.h,.i,.j{stroke-linecap:round;stroke-linejoin:round;}.c,.g,.j{stroke-width:1.3918px;}.e,.f{stroke:#f26971;}.e{stroke-width:1.3924px;}.g{fill:#d0cb86;}.h,.i{fill:#fdf5a6;}.h{stroke-width:1.3969px;}.j{stroke:#89b3c6;}</style></defs><circle class="a" cx="32.2117" cy="32.5293" r="30.9708" transform="translate(-13.5671 32.3047) rotate(-45)"/><path class="b" d="M55.9676,23.5163c-5.6367,0-6.1767-5.1471-13.9408.0408-3.1223,2.088-5.2551,11.6473,3.2094,10.9715,4.92-.3929,6.4024,2.7961,6.3372,9.5684-.0017.2222.0722,9.8059,6.0519,6.1336a31.022,31.022,0,0,0,4.551-25.5538,14.351,14.351,0,0,0-6.2087-1.16ZM15.4121,27.74c-.7016.0289-2.8489,2.535-4.1216,3.822-3.4214,3.4577-.093,8.7894,5.4346,9.0085.7832.0306,1.4743.3294,1.76,1.8088.551,2.8375.2222,7.958.4277,9.3937.4916,3.4415,6.107,8.77,6.2927,4.284.0538-1.2878-.3263-3.371.136-4.3367,1.4777-3.0923,3.3157-.9125,3.1261-6.1759-.0817-2.2572,3.01-2.6039,3.8409-4.6462.582-1.4335,2.105-6.3737-.9227-6.1546-1.042.0754-2.8771.5868-3.5512-.2262-4.208-5.0806-1.42-4.0394-8.9969-3.7956-1.5554.05-2.6223-3.0158-3.4259-2.9818ZM19.8627,4.1214c4.4,3.1308,6.7782,1.19,8.1837,1.4927a1.0067,1.0067,0,0,1,.86,1.1424,6.5731,6.5731,0,0,1-.7492,2.3788c-.49.9071-1.8453.9017-2.7212,1.156-2.1651.6293-2.0753,3.67-3.1757,5.1721-2.9883,4.0793-8.659,4.9209-11.1733,5.4269-1.929.3864-1.93,2.4143-1.1183,3.5561,1.2549,1.7679,3.2224,2.8009,2.08,4.1731C9.6773,31.47,3.8977,25.388,3.21,23.29a5.1018,5.1018,0,0,0-.3353-.7118A31.0665,31.0665,0,0,1,19.8627,4.1214ZM48.7892,6.3661A31.0432,31.0432,0,0,1,61.8226,23.43c-1.6316-2.2416-4.3336-3.8114-8.94-3.6785a7.5124,7.5124,0,0,1-4.2613-1.7663c-1.5962-1.22-2.8979-2.0126-5.0168-.3432-2.0111,1.5843-3.5546,4.4033-4.9864,2.3088-1.07-1.567,1.5106-2.535,2.3873-4.04.6962-1.1945-.816-3.3409.0664-3.996.9964-.739,4.4-.9042,4.9374-2.0562A9.7426,9.7426,0,0,1,48.7892,6.3661Z"/><path class="c" d="M22.5749,25.0756a6.0056,6.0056,0,0,0,8.9666,0"/><path class="d" d="M17.3946,22.9389a2.0939,2.0939,0,0,1,3.1258,0"/><path class="d" d="M33.5963,22.9389a2.0939,2.0939,0,0,1,3.1258,0"/><path class="e" d="M19.9909,25.538H17.9241A1.3847,1.3847,0,0,1,19.9909,25.538Z"/><path class="f" d="M36.192,25.538H34.1253A1.3845,1.3845,0,0,1,36.192,25.538Z"/><rect class="g" x="30.2503" y="69.7023" width="4.0595" height="7.6201"/><path class="h" d="M19.6992,76.54H45.0644a4.7665,4.7665,0,0,1,4.6971,4.8067H15.0022A4.7664,4.7664,0,0,1,19.6992,76.54Z"/><path class="i" d="M3.9785,64.0143A1.9433,1.9433,0,1,1,1.3,61.1981L5.5339,57.17a1.945,1.945,0,0,1,2.7218.0416A34.3962,34.3962,0,0,0,56.5728,8.2464a1.9436,1.9436,0,0,1,.0077-2.7482l.0227-.0221,4.2735-4.2228a1.9428,1.9428,0,1,1,2.7241,2.7708L60.67,6.9209A38.2813,38.2813,0,0,1,6.8917,61.2435Z"/><path class="j" d="M49.01,54.5256a27.59,27.59,0,0,1-16.7746,5.6529m-19.23-7.76A27.624,27.624,0,0,1,4.53,32.4735c0-.7767.0318-1.5471.0944-2.3066"/></svg>