<svg xmlns="http://www.w3.org/2000/svg" viewBox="0 0 67.6806 62.2633"><defs><style>.a{fill:#aee2fa;}.a,.b,.c,.d,.e,.f,.i{stroke:#231f20;}.a,.b,.c,.d,.e{stroke-miterlimit:2.6131;}.a,.d{stroke-width:1.3924px;}.b,.e{fill:#fdf5a6;}.b{stroke-width:1.6469px;}.c{fill:#89b3c6;}.c,.h,.i{stroke-width:1.3921px;}.d{fill:#a0d7c7;}.d,.e,.g,.h,.i{fill-rule:evenodd;}.e,.f,.j{stroke-width:1.3918px;}.f,.h,.j{fill:none;}.f,.h,.i,.j{stroke-linecap:round;stroke-linejoin:round;}.g,.i{fill:#231f20;}.h{stroke:#f26971;}.j{stroke:#d0cb86;}</style></defs><path class="a" d="M4.8288.6962H62.8524a4.132,4.132,0,0,1,4.132,4.132V42.6251a4.1324,4.1324,0,0,1-4.1324,4.1324H4.8286A4.1324,4.1324,0,0,1,.6962,42.6251V4.8288A4.1326,4.1326,0,0,1,4.8288.6962Z"/><rect class="b" x="4.9346" y="5.2192" width="57.8115" height="33.2923" rx="1.2546"/><rect class="c" x="25.854" y="46.7575" width="15.9721" height="11.1705"/><path class="d" d="M52.528,61.5671l.0037-.1868h0c0-1.8989-1.0434-3.4523-2.3207-3.4523H17.47c-1.2773,0-2.3207,1.5534-2.3207,3.4523h0l.0036.1868Z"/><path class="e" d="M33.8406,44.4271a1.7746,1.7746,0,1,0-1.7747-1.7745A1.7779,1.7779,0,0,0,33.8406,44.4271Z"/><line class="f" x1="31.451" y1="2.9979" x2="36.2299" y2="2.9979"/><path class="g" d="M24.0019,21.4977a1.5754,1.5754,0,1,0-1.5755-1.5752A1.5782,1.5782,0,0,0,24.0019,21.4977Z"/><path class="h" d="M25.2559,23.5049h-2.51A1.6813,1.6813,0,0,1,25.2559,23.5049Z"/><path class="h" d="M42.4234,23.5049h2.51A1.6812,1.6812,0,0,0,42.4234,23.5049Z"/><path class="g" d="M43.6794,21.4977a1.5754,1.5754,0,1,0-1.5752-1.5752A1.5782,1.5782,0,0,0,43.6794,21.4977Z"/><path class="i" d="M28.395,22.9422h10.89A7.2939,7.2939,0,0,1,28.395,22.9422Z"/><line class="j" x1="10.9081" y1="8.5618" x2="7.9853" y2="11.6938"/><line class="j" x1="15.9194" y1="8.5618" x2="8.6117" y2="16.8094"/><line class="j" x1="56.6332" y1="35.4169" x2="59.556" y2="32.2849"/><line class="j" x1="51.6218" y1="35.4169" x2="58.9295" y2="27.1692"/></svg>