<svg xmlns="http://www.w3.org/2000/svg" viewBox="0 0 75.9058 39.3577"><defs><style>.a{fill:#b3e4fa;}.a,.b,.c,.e,.f,.g,.h{stroke:#231f20;}.a,.b,.c,.d,.e,.f,.g,.h,.i,.j{stroke-linecap:round;stroke-linejoin:round;}.a,.d,.f,.g,.j{stroke-width:1.3921px;}.a,.b,.c,.d,.e,.f,.g,.i{fill-rule:evenodd;}.b,.c,.d,.i,.j{fill:none;}.b{stroke-width:1.3912px;}.c,.e,.i{stroke-width:1.3918px;}.d{stroke:#f26971;}.e{fill:#fdf5a6;}.f{fill:#aee2fa;}.g{fill:#a0d7c7;}.h{fill:#6ec6aa;stroke-width:1.8px;}.i,.j{stroke:#89b3c6;}</style></defs><path class="a" d="M15.5477.696H60.44A12.9985,12.9985,0,0,1,73.4009,13.6568v3.3659H73.347a7.7643,7.7643,0,0,0-7.6833-6.8315H57.4069a7.7647,7.7647,0,0,0-7.6833,6.8315H2.5869V13.6568A12.9986,12.9986,0,0,1,15.5477.696Z"/><path class="b" d="M25.7332,9.3621a7.2948,7.2948,0,0,0,10.8907,0"/><path class="c" d="M19.4414,6.7669a2.5427,2.5427,0,0,1,3.7964,0"/><path class="c" d="M39.12,6.7669a2.5427,2.5427,0,0,1,3.7964,0"/><path class="d" d="M22.5947,9.9236h-2.51A1.6813,1.6813,0,0,1,22.5947,9.9236Z"/><path class="d" d="M42.2722,9.9236h-2.51A1.6813,1.6813,0,0,1,42.2722,9.9236Z"/><path class="e" d="M49.67,23.2694H6.669V17.0227H49.7236a7.7354,7.7354,0,0,0-.0535.9062Z"/><path class="f" d="M2.5044,28.8355H49.67V17.9289a7.76,7.76,0,0,1,7.7368-7.7377h8.2568a7.7605,7.7605,0,0,1,7.7372,7.7377v17.604H2.5044Z"/><path class="g" d="M61.3392,22.9618a2.9427,2.9427,0,1,0-2.9427-2.9426A2.9482,2.9482,0,0,0,61.3392,22.9618Z"/><path class="h" d="M2.3621,35.5329H73.5436a1.4622,1.4622,0,0,1,1.4622,1.4622v0a1.4626,1.4626,0,0,1-1.4626,1.4626H2.3627A1.4627,1.4627,0,0,1,.9,36.9951v0a1.4621,1.4621,0,0,1,1.4621-1.4621Z"/><path class="i" d="M13.7126,3.75a10.14,10.14,0,0,0-7.725,6.7853"/><line class="j" x1="70.3944" y1="18.838" x2="70.3944" y2="32.7218"/><path class="i" d="M56.232,13.3056a4.9656,4.9656,0,0,0-3.7279,4.2279"/></svg>