<svg xmlns="http://www.w3.org/2000/svg" viewBox="0 0 76.8329 45.6342"><defs><style>.a,.j{fill:#b3e4fa;stroke-miterlimit:2.6131;}.a,.b,.c,.d,.e,.f,.g,.h,.j{stroke:#231f20;}.a{stroke-width:1.3918px;}.b{fill:#89b3c6;}.b,.c,.d,.e,.f,.g,.h,.i{stroke-linecap:round;stroke-linejoin:round;}.b,.c,.i{stroke-width:1.3915px;}.b,.c,.d,.e,.f,.g,.h,.i,.j{fill-rule:evenodd;}.c,.f,.g,.h,.i{fill:none;}.d{fill:#6ec6aa;stroke-width:1.3929px;}.e{fill:#a0d7c7;}.e,.h{stroke-width:1.3924px;}.f{stroke-width:1.3901px;}.g{stroke-width:1.3921px;}.i{stroke:#f26971;}.j{stroke-width:1.7844px;}</style></defs><path class="a" d="M25.8032,14.0327H51.0295a7.5855,7.5855,0,0,1,7.5855,7.5855v12.911a7.5858,7.5858,0,0,1-7.5858,7.5858H25.8031A7.5855,7.5855,0,0,1,18.2176,34.53V21.6183A7.5856,7.5856,0,0,1,25.8032,14.0327Z"/><path class="b" d="M42.0255,1.43,73.597,12.4159c1.8615.6482,4.3285,1.3062.6018,2.6041l-32.34,11.2542a9.1475,9.1475,0,0,1-6.9675-.0312L2.9491,15.1278c-1.8936-.66-3.7979-1.2884-.31-2.5016l32.34-11.2541A9.1638,9.1638,0,0,1,42.0255,1.43Z"/><polyline class="c" points="38.411 13.719 9.438 17.253 9.438 31.209"/><polygon class="d" points="8.121 36.687 10.922 36.687 12.044 44.938 7.111 44.938 8.121 36.687"/><path class="e" d="M9.43,31.5993h.0689a2.6848,2.6848,0,0,1,2.6768,2.6773h0a2.6846,2.6846,0,0,1-2.6768,2.6771H9.43a2.6845,2.6845,0,0,1-2.6767-2.6771h0A2.6847,2.6847,0,0,1,9.43,31.5993Z"/><path class="f" d="M32.2755,34.1944a8.23,8.23,0,0,0,12.2873,0"/><path class="g" d="M25.1767,31.2663a2.8691,2.8691,0,0,1,4.2834,0"/><path class="h" d="M47.3788,31.2663a2.8688,2.8688,0,0,1,4.2831,0"/><path class="i" d="M28.7344,34.828h-2.832A1.8971,1.8971,0,0,1,28.7344,34.828Z"/><path class="i" d="M50.9357,34.828H48.1036A1.8972,1.8972,0,0,1,50.9357,34.828Z"/><path class="j" d="M38.4162,15.66a2.15,2.15,0,0,0,2.355-1.838,2.1494,2.1494,0,0,0-2.355-1.8377,2.1491,2.1491,0,0,0-2.3548,1.8377A2.1493,2.1493,0,0,0,38.4162,15.66Z"/></svg>