<svg xmlns="http://www.w3.org/2000/svg" viewBox="0 0 51.4091 71.9038"><defs><style>.a{fill:#aee2fa;}.a,.b,.d,.e,.g,.h{stroke:#231f20;}.a,.b,.d{stroke-miterlimit:2.6131;}.a,.c,.e,.g,.h{stroke-width:1.3918px;}.b{fill:#a0d7c7;stroke-width:1.3915px;}.c,.e,.f,.g{fill:none;}.c{stroke:#6ec6aa;}.c,.e,.f,.g,.h{stroke-linecap:round;stroke-linejoin:round;}.d{fill:#fdf5a6;}.d,.f{stroke-width:1.3921px;}.d,.f,.g,.h{fill-rule:evenodd;}.f{stroke:#f26971;}.h{fill:#231f20;}</style></defs><path class="a" d="M5.1834.6959H46.226a4.4872,4.4872,0,0,1,4.4872,4.4872V66.72a4.4875,4.4875,0,0,1-4.4875,4.4875H5.1831A4.4872,4.4872,0,0,1,.6959,66.7207V5.1834A4.4875,4.4875,0,0,1,5.1834.6959Z"/><path class="b" d="M6.6823,5.3549H44.7282a1.55,1.55,0,0,1,1.55,1.55v54.711a1.55,1.55,0,0,1-1.55,1.55H6.6817a1.55,1.55,0,0,1-1.55-1.55V6.9057A1.5508,1.5508,0,0,1,6.6823,5.3549Z"/><line class="c" x1="42.1472" y1="57.1932" x2="38.2765" y2="60.1157"/><line class="c" x1="42.1472" y1="52.1815" x2="31.9538" y2="59.4892"/><line class="c" x1="8.9563" y1="11.4678" x2="12.8273" y2="8.545"/><line class="c" x1="8.9563" y1="16.4792" x2="19.1497" y2="9.1714"/><path class="d" d="M25.7046,68.9439A1.7746,1.7746,0,1,0,23.93,67.1691,1.7781,1.7781,0,0,0,25.7046,68.9439Z"/><line class="e" x1="23.3152" y1="3.0948" x2="28.0939" y2="3.0948"/><path class="f" d="M14.6106,35.325h2.51A1.6807,1.6807,0,0,0,14.6106,35.325Z"/><path class="f" d="M34.2881,35.325h2.51A1.6807,1.6807,0,0,0,34.2881,35.325Z"/><path class="g" d="M13.9674,32.1675a2.5428,2.5428,0,0,1,3.7965,0"/><path class="g" d="M33.6458,32.1675a2.5428,2.5428,0,0,1,3.7965,0"/><path class="h" d="M20.26,34.7632H31.15A7.2936,7.2936,0,0,1,20.26,34.7632Z"/></svg>