<svg xmlns="http://www.w3.org/2000/svg" viewBox="0 0 51.5279 65.0423"><defs><style>.a,.b{fill:#b3e4fa;}.a,.b,.c,.f,.g,.n,.o{stroke:#231f20;}.a,.b,.c,.d,.f,.g,.h,.i,.n,.o{stroke-linecap:round;stroke-linejoin:round;}.a{stroke-width:1.692px;}.a,.b,.c,.d,.e,.f,.g,.k,.m{fill-rule:evenodd;}.b,.c,.i,.j,.k,.n{stroke-width:1.3921px;}.c{fill:#a0d7c7;}.d,.f,.h,.i,.n,.o{fill:none;}.d{stroke:#f26971;}.d,.f,.g,.l,.m{stroke-width:1.3918px;}.e,.g{fill:#231f20;}.h,.i{stroke:#89b3c6;}.h{stroke-width:1.4281px;}.j,.k,.l,.m{fill:#6ec6aa;stroke:#6ec6aa;stroke-miterlimit:2.6131;}.o{stroke-width:1.6622px;}</style></defs><path class="a" d="M17.1751.846H34.3539A3.5633,3.5633,0,0,1,37.9068,4.4h0a3.5633,3.5633,0,0,1-3.5529,3.5532H17.1751A3.5635,3.5635,0,0,1,13.6219,4.4h0A3.5636,3.5636,0,0,1,17.1751.846Z"/><path class="b" d="M33.8544,7.9527V25.3093L48.4636,49.9866c1.6835,2.8445,3.32,6.6129,1.7051,9.8271-1.628,3.2366-5.5,4.5326-8.9008,4.5326H10.26c-3.4016,0-7.2732-1.296-8.9011-4.5326C-.256,56.6,1.3807,52.8311,3.0645,49.9866L17.6734,25.3093V7.9527Z"/><path class="c" d="M40.3446,36.2723l8.119,13.7134c1.6841,2.8449,3.3205,6.6144,1.7054,9.8283-1.6288,3.2369-5.5,4.5323-8.9,4.5323h-31.01c-3.4,0-7.2714-1.2954-8.9-4.5323-1.6155-3.2139.0213-6.9834,1.705-9.8283l8.119-13.7134C23.923,40.8907,28.8666,31.76,40.3446,36.2723Z"/><path class="d" d="M15.3771,50.816h2.51A1.6806,1.6806,0,0,0,15.3771,50.816Z"/><path class="d" d="M35.0546,50.816h2.51A1.6806,1.6806,0,0,0,35.0546,50.816Z"/><path class="e" d="M36.3107,48.8088a1.5754,1.5754,0,1,0-1.5755-1.5755A1.5785,1.5785,0,0,0,36.3107,48.8088Z"/><path class="f" d="M14.7339,47.6585a2.5426,2.5426,0,0,1,3.7964,0"/><path class="g" d="M21.0262,50.2541h10.89A7.2937,7.2937,0,0,1,21.0262,50.2541Z"/><line class="h" x1="20.4409" y1="10.5393" x2="20.4409" y2="24.1629"/><line class="i" x1="18.1437" y1="3.4944" x2="33.385" y2="3.4944"/><circle class="j" cx="13.8841" cy="59.8171" r="0.9394"/><path class="k" d="M10.4386,53.9732a.5226.5226,0,1,0-.5227-.5227A.5237.5237,0,0,0,10.4386,53.9732Z"/><circle class="l" cx="5.4292" cy="57.3118" r="0.9394"/><path class="m" d="M14.6154,41.863a.5226.5226,0,1,0-.5227-.5227A.5237.5237,0,0,0,14.6154,41.863Z"/><path class="m" d="M33.9267,38.94a.5228.5228,0,1,0-.5227-.5228A.5236.5236,0,0,0,33.9267,38.94Z"/><circle class="j" cx="28.1863" cy="41.2349" r="0.9394"/><path class="k" d="M38.6249,42.9062a.5226.5226,0,1,0-.5227-.5227A.5237.5237,0,0,0,38.6249,42.9062Z"/><path class="m" d="M36.642,56.3744a.5226.5226,0,1,0-.5227-.5227A.5238.5238,0,0,0,36.642,56.3744Z"/><circle class="j" cx="29.9602" cy="59.6088" r="0.9394"/><path class="m" d="M42.6974,59.82a.5226.5226,0,1,0-.5227-.5228A.5237.5237,0,0,0,42.6974,59.82Z"/><circle class="l" cx="10.2308" cy="45.2025" r="0.9394"/><path class="m" d="M21.0875,57.6251a.5226.5226,0,1,0-.5227-.5227A.5237.5237,0,0,0,21.0875,57.6251Z"/><path class="k" d="M20.6694,43.7418a.5226.5226,0,1,0-.5227-.5227A.5238.5238,0,0,0,20.6694,43.7418Z"/><circle class="j" cx="43.5316" cy="50.9438" r="0.9394"/><line class="n" x1="33.7005" y1="14.8177" x2="30.2808" y2="14.8177"/><line class="o" x1="33.7005" y1="18.1841" x2="28.7152" y2="18.1841"/><line class="n" x1="33.7005" y1="21.5502" x2="30.2808" y2="21.5502"/><line class="o" x1="33.7005" y1="24.9164" x2="28.7152" y2="24.9164"/><line class="o" x1="33.7005" y1="11.4493" x2="28.7152" y2="11.4493"/></svg>