<svg xmlns="http://www.w3.org/2000/svg" viewBox="0 0 68.4792 68.4792"><defs><style>.a{fill:#b3e4fa;stroke-width:1.3924px;}.a,.b,.c,.d,.e,.h{stroke:#231f20;}.a,.b,.e{stroke-miterlimit:2.6131;}.b{fill:#fdf5a6;}.b,.c{stroke-width:1.3921px;}.c,.d,.g,.i{fill:none;}.c,.d,.g,.h,.i{stroke-linecap:round;stroke-linejoin:round;}.d,.e,.g,.h,.i{stroke-width:1.3918px;}.e{fill:#a0d7c7;}.e,.f,.g,.h,.i{fill-rule:evenodd;}.f,.h{fill:#231f20;}.g{stroke:#f26971;}.i{stroke:#89b3c6;}</style></defs><circle class="a" cx="34.2397" cy="34.2396" r="33.5434" transform="translate(-14.1825 34.2397) rotate(-45)"/><circle class="b" cx="34.24" cy="34.2393" r="27.613" transform="translate(-5.0417 62.5526) rotate(-80.7825)"/><line class="c" x1="41.2169" y1="7.517" x2="40.2345" y2="11.1819"/><line class="c" x1="27.9026" y1="57.2052" x2="26.9204" y2="60.8701"/><line class="c" x1="60.9163" y1="41.3879" x2="57.2514" y2="40.4057"/><line class="c" x1="11.2281" y1="28.0735" x2="7.5632" y2="27.0913"/><line class="d" x1="47.8835" y1="10.2317" x2="45.9862" y2="13.5176"/><line class="d" x1="22.1627" y1="54.781" x2="20.2655" y2="58.0669"/><line class="d" x1="58.1454" y1="48.047" x2="54.8595" y2="46.1498"/><line class="d" x1="13.5962" y1="22.3263" x2="10.3102" y2="20.4291"/><line class="c" x1="53.6086" y1="14.5812" x2="50.9256" y2="17.2639"/><line class="c" x1="17.2341" y1="50.9554" x2="14.5509" y2="53.6384"/><line class="c" x1="53.7336" y1="53.7639" x2="51.0506" y2="51.0809"/><line class="c" x1="17.3594" y1="17.3895" x2="14.6764" y2="14.7062"/><line class="d" x1="58.0162" y1="20.287" x2="54.73" y2="22.184"/><line class="d" x1="13.4666" y1="46.0075" x2="10.1804" y2="47.9044"/><line class="d" x1="47.9954" y1="58.167" x2="46.0985" y2="54.8808"/><line class="d" x1="22.275" y1="13.6177" x2="20.378" y2="10.3315"/><line class="d" x1="60.8148" y1="26.9533" x2="57.1496" y2="27.9352"/><line class="d" x1="11.1263" y1="40.267" x2="7.4614" y2="41.249"/><line class="d" x1="41.3315" y1="60.9489" x2="40.3498" y2="57.284"/><line class="d" x1="28.0177" y1="11.2607" x2="27.0361" y2="7.5955"/><line class="c" x1="34.0855" y1="6.7281" x2="34.0855" y2="13.5293"/><line class="c" x1="34.0855" y1="54.9499" x2="34.0855" y2="61.7511"/><line class="d" x1="61.7514" y1="34.2397" x2="54.9499" y2="34.2397"/><line class="d" x1="13.5295" y1="34.2397" x2="6.7281" y2="34.2397"/><path class="e" d="M34.24,37.3357a3.0964,3.0964,0,1,0-3.0963-3.0965A3.1026,3.1026,0,0,0,34.24,37.3357Z"/><path class="e" d="M34.24,16.4455h.0009a1.6288,1.6288,0,0,1,1.624,1.624V31.6032a3.1,3.1,0,0,0-3.2488-.0008V18.07A1.6287,1.6287,0,0,1,34.24,16.4455Z"/><path class="e" d="M49.2537,34.2389V34.24A1.6289,1.6289,0,0,1,47.63,35.8634H36.8768a3.1,3.1,0,0,0-.0008-3.2485H47.63A1.6291,1.6291,0,0,1,49.2537,34.2389Z"/><path class="f" d="M24.4018,44.6321a1.5752,1.5752,0,1,0-1.5755-1.5752A1.5781,1.5781,0,0,0,24.4018,44.6321Z"/><path class="g" d="M25.6562,46.6393h-2.51A1.6814,1.6814,0,0,1,25.6562,46.6393Z"/><path class="g" d="M42.8233,46.6393h2.51A1.6814,1.6814,0,0,0,42.8233,46.6393Z"/><path class="f" d="M44.0794,44.6321a1.5752,1.5752,0,1,0-1.5755-1.5752A1.5782,1.5782,0,0,0,44.0794,44.6321Z"/><path class="h" d="M28.795,46.0767h10.89A7.2937,7.2937,0,0,1,28.795,46.0767Z"/><path class="i" d="M64.1373,42.1172A30.964,30.964,0,0,1,42.249,64.1019M4.2736,26.6287A30.9634,30.9634,0,0,1,26.3946,4.3339"/></svg>