<svg xmlns="http://www.w3.org/2000/svg" viewBox="0 0 69.5063 78.0164"><defs><style>.a{fill:#fdf5a6;}.a,.b,.c,.d,.e,.f,.h{stroke:#231f20;}.a,.b,.c,.d,.e,.f{stroke-miterlimit:2.6131;}.a,.c,.f,.i{stroke-width:1.3921px;}.a,.c,.d,.e,.f,.g,.h,.i,.j{fill-rule:evenodd;}.b,.e,.f{fill:#b3e4fa;}.b{stroke-width:1.3924px;}.c{fill:#89b3c6;}.d{fill:#a0d7c7;}.d,.e,.j{stroke-width:1.3918px;}.g{fill:#231f20;}.h,.i,.j{fill:none;stroke-linecap:round;stroke-linejoin:round;}.h{stroke-width:1.3912px;}.i{stroke:#c55058;}.j{stroke:#d0cb86;}</style></defs><path class="a" d="M41.9735,63.8632c-.0876-8.8007,5.0865-11.202,8.4526-17.5453,2.5693-4.84,3.7908-10.4817,2.615-15.6612-4.2191-18.6131-32.3833-18.4915-36.5757,0C15.29,35.8362,16.511,41.4783,19.08,46.3179c3.3664,6.3433,8.54,8.7446,8.4527,17.5453a1.5919,1.5919,0,0,1,.2534-.02H41.72A1.59,1.59,0,0,1,41.9735,63.8632Z"/><rect class="b" x="26.1403" y="63.8433" width="17.2259" height="3.2933" rx="1.6461"/><path class="b" d="M27.7864,67.1383H41.72a1.6461,1.6461,0,0,1,1.6461,1.6461v.0009A1.6463,1.6463,0,0,1,41.72,70.4316H27.7864A1.6461,1.6461,0,0,1,26.14,68.7855v-.0011a1.6461,1.6461,0,0,1,1.6461-1.6461Z"/><rect class="b" x="26.1403" y="70.4265" width="17.2259" height="3.293" rx="1.6461"/><path class="c" d="M38.9676,73.72c0,1.9894-1.8864,3.6009-4.2142,3.6009s-4.214-1.6115-4.2146-3.6009Z"/><path class="d" d="M32.6654,2.7837a2.0879,2.0879,0,0,1,4.1757,0v6.13a2.0879,2.0879,0,1,1-4.1757,0Z"/><path class="e" d="M13.0794,10.5438a2.0825,2.0825,0,1,1,3.1643-2.7082l4.0589,4.7225a2.0825,2.0825,0,1,1-3.1643,2.7082Z"/><path class="d" d="M2.2176,27.7144a2.0842,2.0842,0,0,1,1.1251-4.0136l6.1078,1.7331a2.0841,2.0841,0,0,1-1.1254,4.0133Z"/><path class="f" d="M53.2627,7.8356a2.0825,2.0825,0,1,1,3.1644,2.7082l-4.059,4.7225a2.0825,2.0825,0,1,1-3.1643-2.7082Z"/><path class="d" d="M66.1638,23.7008a2.0842,2.0842,0,0,1,1.1251,4.0136l-6.1076,1.7328a2.084,2.084,0,1,1-1.125-4.0133Z"/><path class="g" d="M24.9152,38.9963A1.5754,1.5754,0,1,0,23.34,37.421,1.5785,1.5785,0,0,0,24.9152,38.9963Z"/><path class="g" d="M44.5927,38.9963a1.5754,1.5754,0,1,0-1.5752-1.5753A1.5782,1.5782,0,0,0,44.5927,38.9963Z"/><path class="h" d="M29.3083,40.4408a7.2943,7.2943,0,0,0,10.89,0"/><path class="i" d="M26.17,41.0032h-2.51A1.6813,1.6813,0,0,1,26.17,41.0032Z"/><path class="i" d="M45.847,41.0032h-2.51A1.6812,1.6812,0,0,1,45.847,41.0032Z"/><path class="j" d="M31.0006,20.8077A14.8422,14.8422,0,0,0,19.5653,32.1268"/></svg>