<svg xmlns="http://www.w3.org/2000/svg" viewBox="0 0 70.2388 57.7747"><defs><style>.a,.k{fill:#b3e4fa;}.a,.b,.c,.d,.e,.h,.i,.j,.k,.l,.m,.n{stroke:#231f20;}.a,.b,.c,.d,.e,.n{stroke-miterlimit:2.6131;}.a,.b,.c,.d,.e,.f,.h,.i,.q{stroke-width:1.3918px;}.a,.b,.c,.d,.e,.f,.g,.h,.i,.j,.l,.m,.o,.p,.q,.r,.s{fill-rule:evenodd;}.b,.j{fill:#a0d7c7;}.c,.l{fill:#89b3c6;}.d,.m{fill:#f26d79;}.e{fill:#fdf5a6;}.f,.h,.n,.o,.p,.q,.r,.s{fill:none;}.f{stroke:#f26971;}.f,.h,.i,.j,.k,.l,.m,.o,.p,.q,.r,.s{stroke-linecap:round;stroke-linejoin:round;}.g,.i{fill:#231f20;}.j,.l,.m,.n,.p,.r,.s{stroke-width:1.3915px;}.k{stroke-width:8.4478px;}.o,.q{stroke:#b3e4fa;}.o{stroke-width:1.3921px;}.p{stroke:#6ec6aa;}.r{stroke:#c55058;}.s{stroke:#d0cb86;}</style></defs><path class="a" d="M11.5724,12.2841C21.6189,2.2372,35.257-1.0836,44.9852,3.3048c8.062,3.6362,2.037,6.3212-2.992,9.0334-9.8223,5.3107-5.86,12.7525,4.1117,9.3209,4.8438-1.6676,10.7209-4.9436,10.1886,2.3613C55.7444,31.552,52.05,39.6432,45.4906,46.2026,33.3008,58.3924,15.8263,60.68,6.46,51.314S-.6177,24.4742,11.5724,12.2841Z"/><path class="b" d="M6.8876,35.0247a4.5411,4.5411,0,1,1,0,6.4222A4.5419,4.5419,0,0,1,6.8876,35.0247Z"/><path class="c" d="M17.5912,43.366a4.5411,4.5411,0,1,1,0,6.4221A4.5413,4.5413,0,0,1,17.5912,43.366Z"/><path class="d" d="M30.5824,39.5276a4.5411,4.5411,0,1,1,0,6.4221A4.5411,4.5411,0,0,1,30.5824,39.5276Z"/><path class="e" d="M39.9568,29.267a4.5412,4.5412,0,1,1,0,6.4222A4.5418,4.5418,0,0,1,39.9568,29.267Z"/><path class="f" d="M9.82,27.0384h2.51A1.6806,1.6806,0,0,0,9.82,27.0384Z"/><path class="f" d="M29.4973,27.0384h2.51A1.6806,1.6806,0,0,0,29.4973,27.0384Z"/><path class="g" d="M30.7527,21.881a1.575,1.575,0,1,1-1.5749,1.575A1.5748,1.5748,0,0,1,30.7527,21.881Z"/><path class="h" d="M9.1765,23.8809a2.5427,2.5427,0,0,1,3.7965,0"/><path class="i" d="M15.4689,26.4766h10.89A7.2937,7.2937,0,0,1,15.4689,26.4766Z"/><path class="j" d="M55.629,2.7894l8.3038,30.1811-4.53,1.169L52.1662,3.5905C51.3926.3239,54.7253-.4959,55.629,2.7894Z"/><rect class="k" x="59.7226" y="32.9048" width="5.4576" height="7.3741" transform="translate(-7.1616 16.7634) rotate(-14.4681)"/><path class="l" d="M65.6642,39.5707c4.4459,3.9,5.1957,8.3939,1.1206,17.5079-1.4613-4.6231-9.622-7.5317-5.6906-16.2423l.04-.0969Z"/><path class="m" d="M69.3912,48.5814a28.4949,28.4949,0,0,1-2.6064,8.4972c-.7291-2.3066-3.1252-4.186-4.8555-6.5719A10.931,10.931,0,0,1,69.3912,48.5814Z"/><line class="n" x1="59.5992" y1="36.0707" x2="64.6954" y2="34.7557"/><line class="n" x1="60.188" y1="38.4328" x2="65.3224" y2="37.1082"/><path class="o" d="M65.0347,42.3461A6.7933,6.7933,0,0,1,66.7825,46.86"/><path class="p" d="M8.01,38.1859A2.0223,2.0223,0,0,1,9.9822,36.15"/><path class="q" d="M18.7361,46.4586a2.0225,2.0225,0,0,1,1.9721-2.0359"/><path class="r" d="M31.602,42.6221a2.0224,2.0224,0,0,1,1.9721-2.0358"/><path class="s" d="M41.0238,32.3916a2.0224,2.0224,0,0,1,1.9721-2.0358"/></svg>