<svg xmlns="http://www.w3.org/2000/svg" viewBox="0 0 65.0499 67.3372"><defs><style>.a{fill:#f26d79;}.a,.b,.c,.d,.e,.f,.j,.l{stroke:#231f20;}.a,.b,.c,.d,.e,.f,.g,.i,.j,.k,.l{stroke-linecap:round;stroke-linejoin:round;}.a,.c,.e,.g,.k{stroke-width:1.391px;}.b,.d{fill:#fdf5a6;}.b{stroke-width:1.4471px;}.b,.c,.d,.e,.f,.g,.h,.i,.j,.k,.l{fill-rule:evenodd;}.c,.g,.i,.k,.l{fill:none;}.d{stroke-width:1.3915px;}.e{fill:#89b3c6;}.f{fill:#b3e4fa;}.f,.l{stroke-width:1.3912px;}.g{stroke:#b3e4fa;}.h,.j{fill:#231f20;}.i{stroke:#f26971;}.i,.j{stroke-width:1.3921px;}.k{stroke:#89b3c6;}</style></defs><path class="a" d="M20.7413,49.1159H43.3689a1.9525,1.9525,0,0,1,1.9525,1.9525V64.66a1.9531,1.9531,0,0,1-1.9531,1.9531H20.7414A1.9534,1.9534,0,0,1,18.788,64.66V51.0692A1.9533,1.9533,0,0,1,20.7413,49.1159Z"/><path class="b" d="M38.9265,66.6136H25.183V60.1948a.997.997,0,0,1,1.0137-.9745H37.9128a.9968.9968,0,0,1,1.0137.9745Z"/><path class="c" d="M61.06,34.9415V45.574A15.2688,15.2688,0,0,1,45.8345,60.7992h0q-.2572,0-.5126-.0094"/><path class="d" d="M61.0364,38.207a3.3178,3.3178,0,1,0-3.3179-3.3179A3.3241,3.3241,0,0,0,61.0364,38.207Z"/><path class="e" d="M32.0553,56.1336A23.2652,23.2652,0,1,0,8.79,32.8686,23.31,23.31,0,0,0,32.0553,56.1336Z"/><path class="f" d="M32.055,37.0987a4.23,4.23,0,1,0-4.23-4.23A4.2385,4.2385,0,0,0,32.055,37.0987Z"/><path class="g" d="M12.5,32.5448a19.2321,19.2321,0,0,1,19.231-19.2316"/><path class="h" d="M22.2171,44.0572a1.5754,1.5754,0,1,0-1.5755-1.5755A1.5784,1.5784,0,0,0,22.2171,44.0572Z"/><path class="i" d="M23.4712,46.0641h-2.51A1.6815,1.6815,0,0,1,23.4712,46.0641Z"/><path class="i" d="M40.6386,46.0641h2.51A1.6815,1.6815,0,0,0,40.6386,46.0641Z"/><path class="h" d="M41.8944,44.0572a1.5754,1.5754,0,1,0-1.5755-1.5755A1.5784,1.5784,0,0,0,41.8944,44.0572Z"/><path class="j" d="M26.61,45.5017H37.5A7.2939,7.2939,0,0,1,26.61,45.5017Z"/><path class="k" d="M30.3046,32.8691a1.75,1.75,0,0,1,1.75-1.75"/><path class="l" d="M5.3189,25.649A27.7232,27.7232,0,0,1,15.82,10.4386M19.9281,7.971a27.7354,27.7354,0,0,1,24.2544,0M48.29,10.4391a27.7267,27.7267,0,0,1,10.5021,15.21"/><path class="l" d="M.6956,25.649A32.2035,32.2035,0,0,1,13.3194,6.7133m4.0893-2.4968a32.2247,32.2247,0,0,1,29.2932,0m4.089,2.4968A32.2,32.2,0,0,1,63.4147,25.649"/></svg>