<svg xmlns="http://www.w3.org/2000/svg" viewBox="0 0 73.2787 60.5447"><defs><style>.a{fill:#b3e4fa;}.a,.b,.c,.f{stroke:#231f20;}.a,.b,.c,.e,.f,.g,.h{stroke-linecap:round;stroke-linejoin:round;}.a,.b,.e,.f,.h{stroke-width:1.3921px;}.a,.b,.c,.d,.e,.f,.g,.h{fill-rule:evenodd;}.b{fill:#a0d7c7;}.c{fill:#fdf5a6;}.c,.g{stroke-width:1.3918px;}.d,.f{fill:#231f20;}.e,.g,.h{fill:none;}.e{stroke:#f26971;}.g,.h{stroke:#89b3c6;}</style></defs><path class="a" d="M35.6943.696A19.4918,19.4918,0,0,1,53.957,13.376,13.2434,13.2434,0,1,1,59.34,38.72H51.8716V28.74h3.6368l-4.0606-6.0548L47.3872,16.631l-4.0606,6.0546L39.2659,28.74h3.6369V38.72H30.3759V28.741H21.4071V38.72H16.2086a15.5126,15.5126,0,1,1,4.089-30.4792A19.4491,19.4491,0,0,1,35.6943.696Z"/><polygon class="b" points="25.892 59.849 29.952 53.794 34.013 47.739 30.376 47.739 30.376 28.741 21.407 28.741 21.407 47.739 17.77 47.739 21.831 53.794 25.892 59.849"/><polygon class="c" points="47.387 16.631 51.448 22.686 55.508 28.74 51.872 28.74 51.872 47.738 42.903 47.738 42.903 28.74 39.266 28.74 43.327 22.686 47.387 16.631"/><path class="d" d="M16.0536,18.5764a1.5753,1.5753,0,1,0-1.5755-1.5751A1.578,1.578,0,0,0,16.0536,18.5764Z"/><path class="e" d="M17.3079,20.5835h-2.51A1.6812,1.6812,0,0,1,17.3079,20.5835Z"/><path class="e" d="M34.4754,20.5835h2.51A1.6812,1.6812,0,0,0,34.4754,20.5835Z"/><path class="d" d="M35.7311,18.5764a1.5753,1.5753,0,1,0-1.5755-1.5751A1.578,1.578,0,0,0,35.7311,18.5764Z"/><path class="f" d="M20.4467,20.0207h10.89A7.2937,7.2937,0,0,1,20.4467,20.0207Z"/><path class="g" d="M34.5825,3.8318A13.8087,13.8087,0,0,0,24.2471,9.1039"/><path class="g" d="M13.18,11.3479a12.765,12.765,0,0,0-8.2468,7.2028"/><path class="h" d="M61.3779,15.6678a11.0807,11.0807,0,0,1,7.16,6.2532"/></svg>