<svg xmlns="http://www.w3.org/2000/svg" viewBox="0 0 73.2684 80.0017"><defs><style>.a,.d{fill:#b3e4fa;}.a,.b,.c,.d,.e,.f,.g,.i,.j,.o,.p{stroke:#231f20;}.a,.b,.c,.o,.p{stroke-miterlimit:2.6131;}.a,.b,.d,.g,.l{stroke-width:1.3921px;}.a,.b,.f,.g,.h,.i,.j,.k,.l,.m,.n,.o,.p{fill-rule:evenodd;}.b,.f,.g{fill:#fdf5a6;}.c,.o,.p{fill:#a0d7c7;}.c{stroke-width:1.8377px;}.d,.e,.f,.g,.i,.j,.k,.l{stroke-linecap:round;stroke-linejoin:round;}.e,.i,.j,.k,.l{fill:none;}.e{stroke-width:1.3915px;}.f,.k,.p{stroke-width:1.3918px;}.h{fill:#231f20;}.i{stroke-width:1.3944px;}.j{stroke-width:1.3912px;}.k,.l{stroke:#f26971;}.m{fill:#d0cb86;}.n{fill:#6ec6aa;}.o{stroke-width:1.3924px;}</style></defs><path class="a" d="M36.6341,10.7375h.0008c14.1835,0,25.7871,7.8015,25.7871,21.9844V67.8392H10.8467V32.7219C10.8467,18.5382,22.45,10.7375,36.6341,10.7375Z"/><path class="b" d="M36.6341,18.3434h.0008c10.3267,0,18.7756,4.7475,18.7756,16.6127V46.0382a2.2745,2.2745,0,0,0-.9975-.2288H18.856a2.2748,2.2748,0,0,0-.9975.2288V34.9561C17.8585,23.0886,26.3066,18.3434,36.6341,18.3434Z"/><path class="c" d="M11.0452,67.8392H62.34a1.404,1.404,0,0,1,1.404,1.404v8.4356a1.404,1.404,0,0,1-1.404,1.404H11.0452a1.4043,1.4043,0,0,1-1.4043-1.4043v-8.435A1.4043,1.4043,0,0,1,11.0452,67.8392Z"/><path class="d" d="M18.8561,45.8094H54.4127a2.3049,2.3049,0,0,1,2.3049,2.3049V61.2107a2.3046,2.3046,0,0,1-2.3046,2.3046H18.856A2.3048,2.3048,0,0,1,16.5512,61.21V48.1143A2.3049,2.3049,0,0,1,18.8561,45.8094Z"/><line class="e" x1="20.6336" y1="50.4727" x2="52.6351" y2="50.4727"/><path class="f" d="M10.9173,30.8521c-3.0486,8.64-6.43,17.6134-9.3129,26.087-2.6805,7.8812.739,15.2671,8.0365,16.8849V69.2426a1.39,1.39,0,0,1,.24-.7826c-3.1419-2.4923-4.2571-6.8522-2.6045-11.4248,1.1234-3.1045,2.3372-6.2938,3.57-9.5032v-14.81C10.8467,32.0852,10.872,31.4627,10.9173,30.8521Z"/><path class="g" d="M62.3523,30.8541c3.0478,8.64,6.43,17.6122,9.3115,26.085,2.666,7.8395-.7022,15.19-7.9194,16.86V69.2426a1.3928,1.3928,0,0,0-.2818-.8416c3.0844-2.5022,4.1695-6.83,2.5291-11.3658-1.1226-3.1045-2.3364-6.2929-3.57-9.5023V32.7219Q62.422,31.7689,62.3523,30.8541Z"/><path class="h" d="M45.7421,34.3062a1.4348,1.4348,0,1,0-1.4346-1.4347A1.4375,1.4375,0,0,0,45.7421,34.3062Z"/><path class="i" d="M31.8226,35.6217a6.6431,6.6431,0,0,0,9.9181,0"/><path class="j" d="M26.0923,33.2582a2.3159,2.3159,0,0,1,3.4574,0"/><path class="k" d="M28.9641,36.1331H26.6782A1.5311,1.5311,0,0,1,28.9641,36.1331Z"/><path class="l" d="M46.8847,36.1331H44.5986A1.5314,1.5314,0,0,1,46.8847,36.1331Z"/><path class="m" d="M37.2773,20.7818a.6339.6339,0,0,1-.0185,1.2676l-.0771-.0008-.1-.0012h-.0009l-.1-.0011-.0992-.0006-.0992,0-.0984,0-.1014,0-.0984,0-.0964.0011-.0983.0017-.1007.002-.0983.0017-.0729.0015a.6337.6337,0,0,1-.036-1.2669l.0828-.0028.1026-.0017.1009-.0017.1026-.0017.1049-.0008.1029,0,.1012,0,.1043,0,.1035,0,.1035.0006.1043.0011h.0005l.1044.0011Z"/><path class="n" d="M13.06,71.3088a.6339.6339,0,1,1,0-1.2677h1.2676a.6339.6339,0,1,1,0,1.2677Zm46.9026-1.2677a.6339.6339,0,1,1,0,1.2677H58.6944a.6339.6339,0,0,1,0-1.2677Zm-5.07,0a.6339.6339,0,1,1,0,1.2677H53.6247a.6339.6339,0,1,1,0-1.2677Zm-5.0706,0a.6339.6339,0,0,1,0,1.2677H48.5541a.6339.6339,0,1,1,0-1.2677Zm-5.0706,0a.6339.6339,0,0,1,0,1.2677H43.4834a.6339.6339,0,0,1,0-1.2677Zm-5.0706,0a.6339.6339,0,0,1,0,1.2677H38.4128a.6339.6339,0,0,1,0-1.2677Zm-5.0709,0a.6339.6339,0,0,1,0,1.2677H33.3419a.6339.6339,0,0,1,0-1.2677Zm-5.0706,0a.6339.6339,0,0,1,0,1.2677H28.2713a.6339.6339,0,0,1,0-1.2677Zm-5.0706,0a.6339.6339,0,0,1,0,1.2677H23.2007a.6339.6339,0,0,1,0-1.2677Zm-5.0707,0a.6339.6339,0,1,1,0,1.2677H18.13a.6339.6339,0,0,1,0-1.2677Z"/><polygon class="o" points="50.039 52.176 51.935 52.176 52.695 57.761 49.355 57.761 50.039 52.176"/><path class="p" d="M50.9252,48.7314h.0465a1.817,1.817,0,0,1,1.8122,1.8125h0a1.8176,1.8176,0,0,1-1.8122,1.8124h-.0465a1.8176,1.8176,0,0,1-1.8122-1.8124h0A1.8171,1.8171,0,0,1,50.9252,48.7314Z"/><path class="b" d="M36.6341.696h0C42.1316.696,46.63,3.2228,46.63,9.54v2.6339a31.4333,31.4333,0,0,0-4.2551-.9867V8.9128c0-3.6283-2.5826-4.426-5.74-4.426h0c-3.1578,0-5.74.7985-5.74,4.426v2.2731a31.3732,31.3732,0,0,0-4.2551.9868V9.54C26.6394,3.2223,31.1366.696,36.6341.696Z"/><path class="m" d="M20.3184,36.3278a.6339.6339,0,0,1,1.2677,0v1.2671a.6339.6339,0,0,1-1.2677,0Z"/><path class="m" d="M20.5937,31.158A.6337.6337,0,0,1,21.84,31.39l-.0167.0913-.0165.09-.0159.0885-.015.0918-.015.09-.0136.09-.0139.0919-.0127.0921-.0122.0913-.0117.0918-.0113.0927-.01.0955-.0108.0958-.0008.0071a.6339.6339,0,1,1-1.2617-.1236l.002-.0158.0107-.1012.0117-.1015.0113-.1026.013-.1021.0136-.1015.0145-.1006.015-.0989.015-.1.0168-.1.0164-.0963.0173-.1.0179-.0958Z"/><path class="m" d="M22.7134,26.2835a.6341.6341,0,0,1,1.0148.7606l-.0238.0314-.0451.0613-.0462.0623-.0445.0627-.0436.0623-.0448.065-.0445.0646-.0431.0632-.0417.0646-.0439.0669-.0408.0647-.0411.0654-.0408.0661-.0389.066-.0416.0706-.0346.0581a.6337.6337,0,1,1-1.095-.6381l.0371-.064.0434-.0734.0459-.076.0467-.0763.0465-.0754.0482-.0748.0468-.0726.0488-.0734.049-.0731.0487-.072.0491-.07.051-.0726.0516-.0711.05-.07.0524-.0711Z"/><path class="m" d="M26.7925,22.8882a.6336.6336,0,1,1,.5907,1.1211l-.0042.002-.072.0383-.0712.0388-.07.0371-.0712.04-.0711.0388-.0661.0383-.07.0417-.0711.0416-.0663.038-.0675.0425-.0689.0417-.0663.0408-.068.0431-.0664.0425-.0646.0423-.0014.0008a.6338.6338,0,1,1-.7027-1.0551l.0071-.0048.0748-.0482.0731-.0467.0726-.046.0762-.0481.0735-.0445.0745-.0454.0777-.0468.074-.0431.0748-.043.0791-.0454.0768-.0431.0754-.0417.0785-.043.0783-.0417.0776-.0411Z"/><path class="m" d="M31.7574,21.2166a.6337.6337,0,1,1,.2386,1.2447h-.0014l-.09.0179-.0913.0181-.0885.0173-.0867.017-.0884.02-.0879.0187-.0876.0192-.087.02-.0876.02-.087.02-.0862.0207-.087.0209-.0848.0216-.0581.0141a.6336.6336,0,0,1-.3149-1.2274l.0626-.0155.0921-.0233.0927-.0221.0919-.0224.0927-.0215.0921-.0216.0927-.0207.0933-.021.0935-.02.0941-.0193.0955-.02.0941-.0187.0927-.0181.0941-.0179Z"/><path class="m" d="M21.5861,42.6655a.6339.6339,0,1,1-1.2677,0V41.3979a.6339.6339,0,1,1,1.2677,0Z"/><path class="m" d="M52.9506,36.3278a.6339.6339,0,0,0-1.2677,0v1.2671a.6339.6339,0,0,0,1.2677,0Z"/><path class="m" d="M52.6753,31.158a.6337.6337,0,0,0-1.2461.2316l.0165.0913.0167.09.0156.0885.0153.0918.015.09.0136.09.0136.0919.0131.0921.0122.0913.0113.0918.0116.0927.01.0955.0108.0958.0006.0071a.634.634,0,1,0,1.262-.1236L52.865,32.45l-.0108-.1012-.0113-.1015-.0116-.1026-.0131-.1021-.0136-.1015L52.79,31.84l-.0153-.0989-.015-.1-.0164-.1-.0168-.0963-.017-.1-.0181-.0958Z"/><path class="m" d="M50.5553,26.2835a.634.634,0,0,0-1.0145.7606l.0235.0314.0454.0613.0459.0623.0445.0627.0439.0623.0445.065.0445.0646.0431.0632.042.0646.0436.0669.0411.0647.0409.0654.0411.0661.0388.066.0417.0706.0343.0581a.6338.6338,0,0,0,1.0953-.6381l-.0374-.064-.0431-.0734-.0459-.076-.0468-.0763-.0468-.0754-.0482-.0748-.0468-.0726-.0487-.0734-.0488-.0731-.049-.072-.0488-.07-.051-.0726-.0519-.0711-.05-.07-.0525-.0711Z"/><path class="m" d="M46.4765,22.8882a.6336.6336,0,1,0-.5907,1.1211l.0043.002.0717.0383.0711.0388.07.0371.0711.04.0712.0388.0663.0383.07.0417.0711.0416.0661.038.0674.0425.0692.0417.0661.0408.0683.0431.066.0425.0647.0423.0014.0008a.6339.6339,0,0,0,.703-1.0551l-.0074-.0048-.0746-.0482-.0734-.0467-.0725-.046-.0763-.0481-.0731-.0445-.0749-.0454-.0776-.0468-.074-.0431-.0746-.043-.0791-.0454-.0771-.0431-.0754-.0417-.0782-.043-.0782-.0417-.0777-.0411Z"/><path class="m" d="M41.5114,21.2166a.6337.6337,0,0,0-.2387,1.2447h.0017l.09.0179.0913.0181.0884.0173.087.017.0885.02.0875.0187.0876.0192.0871.02.0876.02.087.02.0862.0207.087.0209.0847.0216.0584.0141a.6336.6336,0,1,0,.3147-1.2274l-.0624-.0155-.0921-.0233L42.54,21.438l-.0921-.0224-.0927-.0215-.0919-.0216-.0927-.0207-.0935-.021-.0933-.02-.0941-.0193-.0958-.02L41.7,21.2526l-.0927-.0181-.0941-.0179Z"/><path class="m" d="M51.6829,42.6655a.6339.6339,0,1,0,1.2677,0V41.3979a.6339.6339,0,1,0-1.2677,0Z"/></svg>