<svg xmlns="http://www.w3.org/2000/svg" viewBox="0 0 69.8066 59.0886"><defs><style>.a,.c{fill:#b3e4fa;}.a,.b,.c,.d,.e,.g,.h,.i{stroke:#231f20;}.a,.b,.c,.d,.e,.i,.j{stroke-miterlimit:2.6131;}.a,.b,.f,.g,.i{stroke-width:1.3918px;}.a,.b,.c,.d,.e,.f,.g,.h,.j{fill-rule:evenodd;}.b,.i{fill:#89b3c6;}.c,.h,.j{stroke-width:1.3921px;}.d{fill:#a0d7c7;}.d,.e{stroke-width:1.3915px;}.e{fill:#fdf5a6;}.f,.g,.j{fill:none;}.f{stroke:#f26971;}.f,.g,.h,.j{stroke-linecap:round;}.f,.g,.h{stroke-linejoin:round;}.h{fill:#231f20;}.j{stroke:#b3e4fa;}</style></defs><path class="a" d="M50.6328,38.3333A20.1467,20.1467,0,1,1,29.867,18.1089l.6188-.01H69.1107V31.7736Z"/><path class="b" d="M30.4873,18.0987h8.0376v4.1664a1.4269,1.4269,0,0,1-1.4227,1.4227H31.91a1.427,1.427,0,0,1-1.4227-1.4227Z"/><path class="c" d="M7.4215,31.5211H11.49a20.0448,20.0448,0,0,0-.9209,3.6708H7.5626a3.0624,3.0624,0,0,0-3.0537,3.0538h0A3.0622,3.0622,0,0,0,7.5626,41.3h3.0065l-.0465-.3274a20.16,20.16,0,0,0,.9683,3.9982H7.4215A6.7437,6.7437,0,0,1,.696,38.2457h0A6.7437,6.7437,0,0,1,7.4215,31.5211Z"/><path class="d" d="M32.2867,2.9152a2.22,2.22,0,0,1,4.4391,0V9.431a2.22,2.22,0,0,1-4.4391,0Z"/><path class="e" d="M20.2341,7.7242a2.2137,2.2137,0,0,1,3.3636-2.8789l4.3146,5.02a2.2137,2.2137,0,0,1-3.3636,2.8789Z"/><path class="e" d="M45.4156,4.8453a2.2137,2.2137,0,0,1,3.3636,2.8789l-4.3149,5.02a2.2137,2.2137,0,0,1-3.3636-2.8789Z"/><path class="f" d="M42.7111,26.7827h2.51A1.6806,1.6806,0,0,0,42.7111,26.7827Z"/><path class="f" d="M62.3886,26.7827h2.51A1.6806,1.6806,0,0,0,62.3886,26.7827Z"/><path class="g" d="M42.0679,23.6252a2.5427,2.5427,0,0,1,3.7965,0"/><path class="g" d="M61.746,23.6252a2.5427,2.5427,0,0,1,3.7965,0"/><path class="h" d="M48.36,26.2208H59.25A7.2936,7.2936,0,0,1,48.36,26.2208Z"/><circle class="i" cx="30.5361" cy="38.879" r="12.0079" transform="translate(-18.5478 32.9797) rotate(-45)"/><path class="j" d="M21.4618,38.8787a9.0733,9.0733,0,0,1,9.0737-9.0737"/></svg>