<svg xmlns="http://www.w3.org/2000/svg" viewBox="0 0 100.5384 51.734"><defs><style>.a{fill:#b3e4fa;stroke-miterlimit:2.6131;}.a,.b,.c,.e,.f,.g,.h,.i,.j,.n,.o{stroke:#231f20;}.a,.c,.e,.h,.k,.o{stroke-width:1.3915px;}.a,.d,.e,.k,.l,.m,.n,.o,.p{fill-rule:evenodd;}.b,.c,.d,.f,.g,.i,.j,.k,.l,.n,.o,.p{fill:none;}.b,.c,.d,.e,.f,.g,.h,.i,.j,.k,.l,.n,.o,.p{stroke-linecap:round;stroke-linejoin:round;}.b,.l,.p{stroke-width:1.3918px;}.d{stroke:#89b3c6;stroke-width:1.3921px;}.e{fill:#fdf5a6;}.f{stroke-width:1.381px;}.g{stroke-width:1.3808px;}.h{fill:#a0d7c7;}.i{stroke-width:1.3816px;}.j,.n{stroke-width:1.3924px;}.k{stroke:#d0cb86;}.l{stroke:#6ec6aa;}.m{fill:#231f20;}.p{stroke:#f26971;}</style></defs><path class="a" d="M47.2226,43.6721l-.05-20.4247-.05-19.8712c.0788-3.7684-1.12-3.0226-3.0849-1.0579L23.1655,23.191l-20.88,20.88C.0229,46.333-.06,47.148,3.5793,47.148l19.6426.05,20.3539.05c3.0257.0451,3.5586-.0856,3.6468-3.5759Zm-7.9393-5.4827c-.0564,1.303.1378,1.0647-1.1577,1.1083l-8.9512-.021-8.5674-.02c-.5655,0-.8362-.0856-.919-.2817-.08-.1911.085-.4272.3963-.7444l9.066-9.0664,9.0887-9.0884c.3362-.3393.582-.4482.7453-.3753.1865.0842.2676.4031.2576.8864l.0213,8.6009Z"/><line class="b" x1="36.6879" y1="9.6672" x2="38.8204" y2="11.7997"/><line class="c" x1="33.3093" y1="13.0458" x2="36.4178" y2="16.1542"/><line class="b" x1="29.9307" y1="16.4244" x2="32.0632" y2="18.5569"/><line class="c" x1="26.5521" y1="19.803" x2="29.6605" y2="22.9115"/><line class="b" x1="40.0699" y1="6.2851" x2="43.1784" y2="9.3939"/><line class="b" x1="16.4157" y1="29.9394" x2="18.5482" y2="32.0716"/><line class="c" x1="13.0371" y1="33.318" x2="16.1458" y2="36.4265"/><line class="b" x1="9.6584" y1="36.6966" x2="11.7909" y2="38.8289"/><line class="c" x1="6.2798" y1="40.0752" x2="9.3886" y2="43.1837"/><line class="c" x1="19.7946" y1="26.5605" x2="22.9033" y2="29.669"/><line class="b" x1="23.1732" y1="23.1819" x2="25.3057" y2="25.3144"/><path class="d" d="M13.9481,44.5245l9.3577.0233,18.0315.0445c2.68.04,3.1527-.0757,3.2306-3.1678L44.5232,23.33,44.5,14.1252"/><path class="e" d="M82.85,15.5323l-.24-.1635a17.8,17.8,0,0,0-21.5317,1.28L89.5243,36.0413a17.8011,17.8011,0,0,0,.686-9.1931A17.5751,17.5751,0,0,0,82.85,15.5323Zm4.7809-7.9631.5516.3833A27.0159,27.0159,0,0,1,99.2979,25.1489c1.8632,9.8532-1.1829,16.6152-7.1552,23.8955l-3.5091-2.3931L51.5281,21.355l-3.83-2.61c5.3776-7.8865,9.83-13.26,19.9681-15.1758A26.2746,26.2746,0,0,1,87.6305,7.5692Z"/><line class="f" x1="55.3217" y1="23.1918" x2="56.9803" y2="20.7682"/><line class="b" x1="59.0711" y1="25.758" x2="61.4894" y2="22.2249"/><line class="g" x1="62.8208" y1="28.3242" x2="64.4794" y2="25.9006"/><line class="c" x1="66.5702" y1="30.8904" x2="68.9884" y2="27.3573"/><line class="b" x1="51.5684" y1="20.6231" x2="53.9866" y2="17.09"/><line class="g" x1="77.8195" y1="38.5893" x2="79.4783" y2="36.1657"/><line class="c" x1="81.5691" y1="41.1555" x2="83.9871" y2="37.6224"/><line class="g" x1="85.3185" y1="43.7215" x2="86.9774" y2="41.2978"/><line class="b" x1="89.0682" y1="46.2877" x2="91.4862" y2="42.7546"/><line class="b" x1="74.0695" y1="36.0228" x2="76.4878" y2="32.4897"/><line class="g" x1="70.3201" y1="33.4566" x2="71.979" y2="31.033"/><path class="h" d="M26.3483,36.0866h56.38a1.6308,1.6308,0,0,1,1.6308,1.6308v11.69a1.6308,1.6308,0,0,1-1.6308,1.6308h-56.38a1.6311,1.6311,0,0,1-1.6311-1.6311v-11.69A1.6308,1.6308,0,0,1,26.3483,36.0866Z"/><line class="i" x1="73.5369" y1="36.0866" x2="73.5369" y2="39.1568"/><line class="j" x1="68.7872" y1="36.0866" x2="68.7872" y2="40.5622"/><line class="i" x1="64.0371" y1="36.0866" x2="64.0371" y2="39.1568"/><line class="j" x1="59.2871" y1="36.0866" x2="59.2871" y2="40.5622"/><line class="j" x1="78.2914" y1="36.0866" x2="78.2914" y2="40.5622"/><line class="i" x1="45.0368" y1="36.0866" x2="45.0368" y2="39.1568"/><line class="j" x1="40.2868" y1="36.0866" x2="40.2868" y2="40.5622"/><line class="i" x1="35.5371" y1="36.0866" x2="35.5371" y2="39.1568"/><line class="j" x1="30.787" y1="36.0866" x2="30.787" y2="40.5622"/><line class="j" x1="49.7871" y1="36.0866" x2="49.7871" y2="40.5622"/><line class="i" x1="54.5368" y1="36.0866" x2="54.5368" y2="39.1568"/><path class="k" d="M57.44,11.2812A21.6352,21.6352,0,0,1,68.3588,6.1193a25.0908,25.0908,0,0,1,5.1492-.44,22.7947,22.7947,0,0,1,12.55,3.9866l.489.34a23.9526,23.9526,0,0,1,9.8552,15.2462,22.0984,22.0984,0,0,1-.6619,11.7263"/><path class="l" d="M27.96,47.7886H40.19m28.6968,0h12.23"/><path class="m" d="M64.0785,44.4556a1.5028,1.5028,0,1,0-1.5026-1.5029A1.506,1.506,0,0,0,64.0785,44.4556Z"/><path class="n" d="M49.4982,45.8338a6.9583,6.9583,0,0,0,10.3887,0"/><path class="o" d="M43.4962,43.3581a2.4255,2.4255,0,0,1,3.6215,0"/><path class="p" d="M46.5043,46.3693H44.11A1.604,1.604,0,0,1,46.5043,46.3693Z"/><path class="p" d="M65.275,46.3693H62.8806A1.604,1.604,0,0,1,65.275,46.3693Z"/></svg>