<svg xmlns="http://www.w3.org/2000/svg" viewBox="0 0 49.6222 68.3867"><defs><style>.a{fill:#b3e4fa;stroke-width:1.3995px;}.a,.b,.c,.d,.e,.f,.h,.i,.j{stroke:#231f20;}.a,.b,.c,.d,.e,.f{stroke-miterlimit:2.6131;}.b,.d,.e{fill:#fdf5a6;}.b,.i,.l{stroke-width:1.3918px;}.b,.d,.g,.h,.i,.j,.m,.n{fill-rule:evenodd;}.c,.f{fill:#a0d7c7;}.c,.m{stroke-width:1.3924px;}.d,.e{stroke-width:1.3932px;}.f{stroke-width:1.4882px;}.g,.h,.i,.k,.l,.m,.n{fill:none;}.g{stroke:#f26971;}.g,.h,.i,.j,.k,.l,.m,.n{stroke-linecap:round;stroke-linejoin:round;}.g,.j{stroke-width:1.3921px;}.h,.k{stroke-width:1.3915px;}.j{fill:#231f20;}.k,.l,.n{stroke:#6ec6aa;}.m{stroke:#d0cb86;}.n{stroke-width:1.4037px;}</style></defs><path class="a" d="M4.7782.7H44.8436a4.0788,4.0788,0,0,1,4.0788,4.0788v58.83a4.0785,4.0785,0,0,1-4.0785,4.0785H4.7783A4.0785,4.0785,0,0,1,.7,63.6084V4.7782A4.0784,4.0784,0,0,1,4.7782.7Z"/><path class="b" d="M4.7784.7H44.8436a4.09,4.09,0,0,1,4.0788,4.0785V28.0844H.7V4.7782A4.09,4.09,0,0,1,4.7784.7Z"/><path class="c" d="M8.4453,5.2953H41.177a2.3275,2.3275,0,0,1,2.3275,2.3275V21.1506a2.3272,2.3272,0,0,1-2.3272,2.3272H8.4453A2.3275,2.3275,0,0,1,6.1178,21.15V7.6227A2.3275,2.3275,0,0,1,8.4453,5.2953Z"/><path class="d" d="M10.47,40.6134a4.3522,4.3522,0,1,0-4.352-4.352A4.36,4.36,0,0,0,10.47,40.6134Z"/><path class="d" d="M10.47,52.3917a4.3522,4.3522,0,1,0-4.352-4.352A4.36,4.36,0,0,0,10.47,52.3917Z"/><circle class="e" cx="10.4704" cy="59.3737" r="4.352"/><path class="d" d="M25.1641,40.6134a4.3522,4.3522,0,1,0-4.3521-4.352A4.36,4.36,0,0,0,25.1641,40.6134Z"/><path class="d" d="M25.1641,52.3917A4.3522,4.3522,0,1,0,20.812,48.04,4.3605,4.3605,0,0,0,25.1641,52.3917Z"/><path class="d" d="M25.1641,63.7257a4.352,4.352,0,1,0-4.3521-4.352A4.36,4.36,0,0,0,25.1641,63.7257Z"/><path class="d" d="M39.153,40.6134a4.3522,4.3522,0,1,0-4.352-4.352A4.36,4.36,0,0,0,39.153,40.6134Z"/><rect class="f" x="34.7786" y="43.6804" width="8.7469" height="20.0539" rx="4.373"/><path class="g" d="M14.6529,15.3614h2.2984A1.5388,1.5388,0,0,0,14.6529,15.3614Z"/><path class="g" d="M32.67,15.3614h2.2984A1.5388,1.5388,0,0,0,32.67,15.3614Z"/><path class="h" d="M14.0639,12.47a2.3284,2.3284,0,0,1,3.4761,0"/><path class="i" d="M32.0817,12.47a2.3285,2.3285,0,0,1,3.4762,0"/><path class="j" d="M19.8253,14.8468h9.9714A6.6785,6.6785,0,0,1,19.8253,14.8468Z"/><line class="k" x1="9.9151" y1="7.3863" x2="8.1576" y2="9.2694"/><line class="l" x1="12.2701" y1="8.129" x2="9.1925" y2="11.6025"/><line class="k" x1="39.462" y1="21.4294" x2="41.2192" y2="19.5464"/><line class="l" x1="37.1886" y1="20.5947" x2="40.1027" y2="17.3059"/><path class="m" d="M8.5224,36.2841a2.0181,2.0181,0,0,1,2.018-2.0185"/><path class="m" d="M8.5224,48.137a2.0184,2.0184,0,0,1,2.018-2.0189"/><path class="m" d="M8.5224,59.4879a2.0182,2.0182,0,0,1,2.018-2.0185"/><path class="m" d="M23.1943,36.2841a2.0181,2.0181,0,0,1,2.018-2.0185"/><path class="m" d="M23.1943,48.137a2.0184,2.0184,0,0,1,2.018-2.0189"/><path class="m" d="M23.1943,59.4879a2.0182,2.0182,0,0,1,2.018-2.0185"/><path class="m" d="M37.15,36.2841a2.0179,2.0179,0,0,1,2.018-2.0185"/><path class="n" d="M39.1675,46.1434a2.0548,2.0548,0,0,0-2.018,2.09v3.86"/></svg>