<svg xmlns="http://www.w3.org/2000/svg" viewBox="0 0 66.2218 74.1353"><defs><style>.a,.f,.g,.h,.i,.j,.k,.l{fill:none;}.a,.b,.c,.d,.f,.g{stroke:#231f20;}.a,.b,.c,.d{stroke-miterlimit:2.6131;}.a{stroke-width:1.9553px;}.a,.b,.c,.d,.f,.g,.h,.i,.j,.k,.l{fill-rule:evenodd;}.b{fill:#a0d7c7;}.b,.c,.d,.g,.j,.k,.l{stroke-width:1.3918px;}.c{fill:#fdf5a6;}.d{fill:#aee2fa;}.e{fill:#231f20;}.f,.g,.h,.i,.j,.k,.l{stroke-linecap:round;stroke-linejoin:round;}.f,.h{stroke-width:1.3921px;}.h,.i{stroke:#f26971;}.i{stroke-width:1.3924px;}.j{stroke:#6ec6aa;}.k{stroke:#d0cb86;}.l{stroke:#89b3c6;}</style></defs><path class="a" d="M32.8963,73.1577c7.0962,0,12.8843-16.2126,12.8843-36.09S39.9925.9776,32.8963.9776s-12.884,16.2125-12.884,36.09S25.8,73.1577,32.8963,73.1577Z"/><path class="a" d="M64.1508,19.0226c3.5578,6.1623-7.5515,19.2368-24.8131,29.2026s-34.139,13.05-37.6968,6.8876S9.1927,35.876,26.454,25.91,60.593,12.8607,64.1508,19.0226Z"/><path class="a" d="M64.1508,55.1128c-3.5578,6.162-20.4352,3.0784-37.6968-6.8876S-1.9168,25.1849,1.6409,19.0226,22.0762,15.9443,39.3377,25.91,67.7086,48.9505,64.1508,55.1128Z"/><path class="b" d="M25.1586,12.3374a4.1732,4.1732,0,1,0-4.1732-4.1732A4.1811,4.1811,0,0,0,25.1586,12.3374Z"/><path class="c" d="M11.8751,62.4047A4.1732,4.1732,0,1,0,7.702,58.2314,4.1811,4.1811,0,0,0,11.8751,62.4047Z"/><path class="d" d="M61.3527,48.4662A4.1729,4.1729,0,1,0,57.18,44.2933,4.1811,4.1811,0,0,0,61.3527,48.4662Z"/><circle class="e" cx="41.5414" cy="35.388" r="1.3618"/><path class="f" d="M28.3291,37.9983a6.3054,6.3054,0,0,0,9.4139,0"/><path class="g" d="M22.89,35.755a2.1984,2.1984,0,0,1,3.2819,0"/><path class="h" d="M25.6158,38.4839h-2.17A1.4531,1.4531,0,0,1,25.6158,38.4839Z"/><path class="i" d="M42.6256,38.4839h-2.17A1.4533,1.4533,0,0,1,42.6256,38.4839Z"/><path class="j" d="M23.36,8.1635a1.7983,1.7983,0,0,1,1.7983-1.7983"/><path class="k" d="M10.0505,58.2707a1.7983,1.7983,0,0,1,1.7983-1.7983"/><path class="l" d="M59.5584,44.2825a1.7985,1.7985,0,0,1,1.7986-1.7983"/></svg>