<svg xmlns="http://www.w3.org/2000/svg" viewBox="0 0 77.2328 49.0551"><defs><style>.a{fill:#fdf5a6;stroke-width:1.4769px;}.a,.b,.c,.d,.h,.i{stroke:#231f20;}.a,.b,.c{stroke-miterlimit:2.6131;}.b{fill:#aee2fa;stroke-width:1.6472px;}.c{fill:#a0d7c7;}.c,.d,.e,.f,.i{stroke-width:1.3921px;}.c,.f,.g,.h,.i{fill-rule:evenodd;}.d,.e,.f,.h{fill:none;}.d,.e,.f,.h,.i{stroke-linecap:round;stroke-linejoin:round;}.e{stroke:#89b3c6;}.f{stroke:#f26971;}.g,.i{fill:#231f20;}.h{stroke-width:1.3918px;}</style></defs><path class="a" d="M9.2934.7384H67.9409a3.82,3.82,0,0,1,3.82,3.82V39.502a3.82,3.82,0,0,1-3.82,3.82H9.2932a3.82,3.82,0,0,1-3.82-3.82V4.5589A3.82,3.82,0,0,1,9.2934.7384Z"/><path class="b" d="M10.9659,5.3835H66.2682a1.2546,1.2546,0,0,1,1.2546,1.2546V37.4213a1.2549,1.2549,0,0,1-1.2549,1.2549H10.9656A1.2546,1.2546,0,0,1,9.711,37.4217V6.6384A1.2549,1.2549,0,0,1,10.9659,5.3835Z"/><path class="c" d="M76.5293,43.3219l.0074.2589h0a4.7562,4.7562,0,0,1-4.7084,4.7783H5.4043A4.7562,4.7562,0,0,1,.696,43.5808h0l.0074-.2589Z"/><line class="d" x1="36.2277" y1="3.0907" x2="41.0064" y2="3.0907"/><line class="e" x1="15.6845" y1="8.7261" x2="12.7617" y2="11.8582"/><line class="e" x1="20.6961" y1="8.7261" x2="13.3881" y2="16.9738"/><line class="e" x1="61.4099" y1="35.5813" x2="64.3327" y2="32.4493"/><line class="e" x1="56.3982" y1="35.5813" x2="63.7059" y2="27.3336"/><path class="c" d="M46.6011,43.323a2.2009,2.2009,0,0,1-1.8522,2.4H32.4817a2.2,2.2,0,0,1-1.8518-2.4Z"/><path class="f" d="M27.6849,23.6694h2.51A1.68,1.68,0,0,0,27.6849,23.6694Z"/><path class="f" d="M47.3625,23.6694h2.51A1.68,1.68,0,0,0,47.3625,23.6694Z"/><path class="g" d="M48.6182,21.6622a1.5755,1.5755,0,1,0-1.5755-1.5754A1.5783,1.5783,0,0,0,48.6182,21.6622Z"/><path class="h" d="M27.0418,20.5118a2.5427,2.5427,0,0,1,3.7964,0"/><path class="i" d="M33.3341,23.1074h10.89A7.2939,7.2939,0,0,1,33.3341,23.1074Z"/></svg>