<svg xmlns="http://www.w3.org/2000/svg" viewBox="0 0 29.6883 70.5733"><defs><style>.a{fill:#fdf5a6;}.a,.b,.c,.d,.e,.f,.j{stroke:#231f20;}.a,.b,.c,.d,.e,.f,.g,.h,.i,.j{stroke-linecap:round;stroke-linejoin:round;}.a,.c,.i{stroke-width:1.3921px;}.a,.e,.f,.g,.i{fill-rule:evenodd;}.b{fill:#b3e4fa;stroke-width:1.3924px;}.c,.e,.f,.g,.h,.i,.j{fill:none;}.d{fill:#89b3c6;stroke-width:1.4794px;}.e{stroke-width:1.391px;}.f,.g,.h{stroke-width:1.3918px;}.g{stroke:#f26971;}.h,.i{stroke:#d0cb86;}.j{stroke-width:1.5817px;}</style></defs><path class="a" d="M28.9922,17.8419V55.73A14.1888,14.1888,0,0,1,14.8445,69.8772h-.0008A14.1887,14.1887,0,0,1,.6961,55.73V17.8419Z"/><rect class="b" x="4.7127" y="0.6962" width="20.2626" height="17.1457"/><line class="c" x1="14.8437" y1="0.8057" x2="14.8437" y2="17.8722"/><rect class="d" x="8.339" y="6.0353" width="3.0577" height="3.7168"/><rect class="d" x="18.2912" y="6.0353" width="3.058" height="3.7168"/><path class="e" d="M9.3986,52.0008a7.2946,7.2946,0,0,0,10.89,0"/><path class="f" d="M3.1065,49.4054a2.5432,2.5432,0,0,1,3.7965,0"/><path class="f" d="M22.7849,49.4054a2.5432,2.5432,0,0,1,3.7965,0"/><path class="g" d="M6.26,52.5623H3.75A1.6814,1.6814,0,0,1,6.26,52.5623Z"/><path class="g" d="M25.9373,52.5623h-2.51A1.6813,1.6813,0,0,1,25.9373,52.5623Z"/><line class="h" x1="4.161" y1="20.7193" x2="4.161" y2="39.5099"/><path class="i" d="M25,59.6135A12.4489,12.4489,0,0,1,18.54,65.93"/><line class="j" x1="7.2927" y1="24.2337" x2="22.3952" y2="24.2337"/><line class="j" x1="7.2927" y1="29.6088" x2="22.3952" y2="29.6088"/><line class="j" x1="7.2927" y1="34.9838" x2="22.3952" y2="34.9838"/></svg>