<svg xmlns="http://www.w3.org/2000/svg" viewBox="0 0 73.1957 69.0653"><defs><style>.a{fill:#d0cb86;}.a,.b,.c,.d,.e,.f,.g,.h,.j,.l,.m,.n,.o,.p,.q,.r,.t{stroke:#231f20;}.a,.b,.c,.d,.e,.f,.g,.h,.j,.k,.l,.m,.s{stroke-linecap:round;stroke-linejoin:round;}.a,.d,.e,.g,.m,.n,.o{stroke-width:1.3918px;}.a,.b,.d,.i,.j,.k,.m,.n,.o,.p,.q{fill-rule:evenodd;}.b,.c,.f{fill:#fdf5a6;}.b{stroke-width:1.4576px;}.c,.h,.k,.p,.q,.s,.t{stroke-width:1.3921px;}.d,.e{fill:#b3e4fa;}.f,.l{stroke-width:1.3915px;}.g,.j,.k,.l,.r,.s{fill:none;}.h,.m{fill:#89b3c6;}.i{fill:#231f20;}.j{stroke-width:1.3912px;}.k{stroke:#f26971;}.n,.q{fill:#fffde7;}.n,.o,.p,.q,.r,.t{stroke-miterlimit:2.6131;}.o,.p,.t{fill:#a0d7c7;}.r{stroke-width:1.5007px;}.s{stroke:#89b3c6;}</style></defs><path class="a" d="M20.356.7288H52.8405a10.2882,10.2882,0,0,1,10.258,10.258V43.2581q0,.4239-.0346.8391V35.0379a4.0771,4.0771,0,0,0-4.0654-4.0663H14.1972a4.0771,4.0771,0,0,0-4.0655,4.0663v9.0505c-.0227-.2747-.0337-.5508-.0337-.83V10.9868A10.2881,10.2881,0,0,1,20.356.7288Z"/><path class="b" d="M19.5887.7288H53.6078a10.54,10.54,0,0,1,10.7427,10.258v2.7794H8.8459V10.9868A10.54,10.54,0,0,1,19.5887.7288Z"/><path class="c" d="M13.1118,30.9722H60.0841A4.0655,4.0655,0,0,1,64.15,35.0377v15.48a4.0654,4.0654,0,0,1-4.0654,4.0654H13.1115a4.0652,4.0652,0,0,1-4.0652-4.0652v-15.48A4.0655,4.0655,0,0,1,13.1118,30.9722Z"/><path class="d" d="M21.4215,60.4619v4.5839a3.3328,3.3328,0,0,1-3.3239,3.3236h-4.676a3.332,3.332,0,0,1-3.3236-3.3236V60.4619Z"/><rect class="e" x="14.319" y="13.7662" width="44.5584" height="17.2054"/><path class="f" d="M68.0387,15.3879h3.1522a1.309,1.309,0,0,1,1.309,1.309v11.344A1.3088,1.3088,0,0,1,71.1911,29.35H68.0387A1.3093,1.3093,0,0,1,66.7294,28.04V16.6972A1.3093,1.3093,0,0,1,68.0387,15.3879Z"/><rect class="g" x="63.0985" y="19.6974" width="3.6309" height="5.343"/><path class="d" d="M63.0985,60.4619v4.5839a3.3326,3.3326,0,0,1-3.3236,3.3236H55.0988a3.3322,3.3322,0,0,1-3.3239-3.3236V60.4619Z"/><path class="f" d="M2.0048,15.3879H5.1566a1.31,1.31,0,0,1,1.31,1.31V28.0409A1.3088,1.3088,0,0,1,5.1574,29.35H2.005A1.3093,1.3093,0,0,1,.6958,28.04V16.6969A1.309,1.309,0,0,1,2.0048,15.3879Z"/><rect class="g" x="6.4662" y="19.6974" width="3.6309" height="5.343"/><path class="h" d="M9.095,51.5931H64.1011a2.0514,2.0514,0,0,1,2.0514,2.0514V58.41a2.0517,2.0517,0,0,1-2.0517,2.0517H9.0954A2.0518,2.0518,0,0,1,7.0436,58.41V53.6445A2.0514,2.0514,0,0,1,9.095,51.5931Z"/><line class="g" x1="11.0258" y1="56.0274" x2="62.1704" y2="56.0274"/><path class="i" d="M26.76,22.2823a1.5754,1.5754,0,1,0-1.5752-1.5755A1.5786,1.5786,0,0,0,26.76,22.2823Z"/><path class="i" d="M46.4373,22.2823a1.5754,1.5754,0,1,0-1.5752-1.5755A1.5784,1.5784,0,0,0,46.4373,22.2823Z"/><path class="j" d="M31.1526,23.7271a7.2947,7.2947,0,0,0,10.8907,0"/><path class="k" d="M28.0141,24.29h-2.51A1.6814,1.6814,0,0,1,28.0141,24.29Z"/><path class="k" d="M47.6916,24.29h-2.51A1.6814,1.6814,0,0,1,47.6916,24.29Z"/><line class="l" x1="29.9836" y1="35.9408" x2="29.9836" y2="47.3494"/><line class="l" x1="34.3929" y1="35.9408" x2="34.3929" y2="47.3494"/><line class="g" x1="38.8022" y1="35.9408" x2="38.8022" y2="47.3494"/><line class="g" x1="43.2123" y1="35.9408" x2="43.2123" y2="47.3494"/><path class="m" d="M19.5887.7288h8.4948V13.7662H8.8459V10.9868A10.54,10.54,0,0,1,19.5887.7288Zm25.5242,0h8.4949a10.54,10.54,0,0,1,10.7427,10.258v2.7794H45.1129Z"/><path class="n" d="M15.46,10.3405a2.3158,2.3158,0,1,0-2.3156-2.3159A2.32,2.32,0,0,0,15.46,10.3405Z"/><path class="o" d="M22.6722,10.3405a2.3158,2.3158,0,1,0-2.3156-2.3159A2.32,2.32,0,0,0,22.6722,10.3405Z"/><path class="p" d="M50.5229,10.3405a2.3158,2.3158,0,1,0-2.3157-2.3159A2.32,2.32,0,0,0,50.5229,10.3405Z"/><path class="q" d="M57.7348,10.3405a2.3158,2.3158,0,1,0-2.3157-2.3159A2.32,2.32,0,0,0,57.7348,10.3405Z"/><line class="r" x1="13.0551" y1="60.7955" x2="13.0551" y2="68.0417"/><line class="r" x1="15.7593" y1="60.7955" x2="15.7593" y2="68.0417"/><line class="r" x1="18.4644" y1="60.7955" x2="18.4644" y2="68.0417"/><line class="r" x1="54.732" y1="60.7955" x2="54.732" y2="68.0417"/><line class="r" x1="57.4363" y1="60.7955" x2="57.4363" y2="68.0417"/><line class="r" x1="60.1414" y1="60.7955" x2="60.1414" y2="68.0417"/><line class="s" x1="18.6748" y1="16.3307" x2="16.8544" y2="18.2815"/><line class="s" x1="21.7966" y1="16.3307" x2="17.2444" y2="21.4682"/><line class="s" x1="54.6294" y1="28.6554" x2="56.4501" y2="26.7044"/><line class="s" x1="51.5076" y1="28.6554" x2="56.0598" y2="23.5179"/><path class="n" d="M19.6992,47.93a6.2843,6.2843,0,1,0-6.2844-6.2844A6.2964,6.2964,0,0,0,19.6992,47.93Z"/><circle class="t" cx="19.6992" cy="41.6452" r="3.4152"/><path class="n" d="M53.4958,47.93a6.2843,6.2843,0,1,0-6.2844-6.2844A6.2964,6.2964,0,0,0,53.4958,47.93Z"/><path class="p" d="M53.4958,45.06a3.4152,3.4152,0,1,0-3.4151-3.4152A3.4217,3.4217,0,0,0,53.4958,45.06Z"/></svg>