<svg xmlns="http://www.w3.org/2000/svg" viewBox="0 0 36.4649 63.2992"><defs><style>.a{fill:#a0d7c7;}.a,.b,.c,.d,.f{stroke:#231f20;}.a,.b,.c,.d,.f,.g,.h,.i{stroke-linecap:round;stroke-linejoin:round;}.a,.d,.g,.i{stroke-width:1.3918px;}.b{fill:#aee2fa;}.b,.c,.h{stroke-width:1.3921px;}.b,.c,.e,.f,.g,.h,.i{fill-rule:evenodd;}.c,.f,.g,.h,.i{fill:none;}.d{fill:#fdf5a6;}.e{fill:#231f20;}.f{stroke-width:1.3912px;}.g{stroke:#f26971;}.h{stroke:#6ec6aa;}.i{stroke:#89b3c6;}</style></defs><path class="a" d="M18.232.6961h.0006A17.5362,17.5362,0,0,1,35.7688,18.2322V45.067A17.5362,17.5362,0,0,1,18.2326,62.6032H18.232A17.536,17.536,0,0,1,.6961,45.0673V18.232A17.536,17.536,0,0,1,18.232.6961Z"/><path class="b" d="M18.232.6961h.0008a17.5876,17.5876,0,0,1,17.536,17.5368v8.8818H.6961V18.2329A17.5875,17.5875,0,0,1,18.232.6961Z"/><path class="c" d="M18.232,1.1114V7.6353m0,12.5946v6.5237"/><rect class="d" x="15.5725" y="7.6905" width="5.3195" height="12.4835" rx="2.6595"/><path class="e" d="M8.3938,42.9451A1.5754,1.5754,0,1,0,6.8186,41.37,1.5786,1.5786,0,0,0,8.3938,42.9451Z"/><path class="e" d="M28.0713,42.9451A1.5754,1.5754,0,1,0,26.4961,41.37,1.5786,1.5786,0,0,0,28.0713,42.9451Z"/><path class="f" d="M12.7869,44.39a7.2948,7.2948,0,0,0,10.8907,0"/><path class="g" d="M9.6484,44.9523h-2.51A1.6812,1.6812,0,0,1,9.6484,44.9523Z"/><path class="g" d="M29.3256,44.9523h-2.51A1.6811,1.6811,0,0,1,29.3256,44.9523Z"/><path class="h" d="M31.0658,51.3628a14.162,14.162,0,0,1-8.8316,7.3194"/><path class="i" d="M11.771,5.7834a13.7761,13.7761,0,0,0-7.2029,9.3949"/></svg>