<svg xmlns="http://www.w3.org/2000/svg" viewBox="0 0 67.1287 61.5661"><defs><style>.a,.e{fill:#fffde7;}.a,.b,.c,.d,.e,.f,.i,.j,.k,.l{stroke:#231f20;}.a,.b,.c,.d,.e,.k,.l{stroke-miterlimit:2.6131;}.a,.b,.d{stroke-width:1.3924px;}.b{fill:#b3e4fa;}.b,.c,.d,.g,.h,.i,.j,.k,.l,.m,.n{fill-rule:evenodd;}.c{fill:#a0d7c7;}.c,.l,.m{stroke-width:1.3921px;}.d{fill:#6ec6aa;}.e{stroke-width:4.2528px;}.f,.g,.i,.m,.n{fill:none;}.f,.g,.i,.j,.m,.n{stroke-linecap:round;stroke-linejoin:round;}.f{stroke-width:3.0169px;}.g{stroke:#f26971;}.g,.i,.j,.k,.n{stroke-width:1.3918px;}.h,.j{fill:#231f20;}.k,.l{fill:#fdf5a6;}.m,.n{stroke:#6ec6aa;}</style></defs><rect class="a" x="16.4308" y="0.6962" width="34.2666" height="14.6863"/><path class="b" d="M12.3393,6.73h4.0915v8.6522h-5.77v-7.29A1.55,1.55,0,0,1,12.3393,6.73Zm38.3581,0H54.789a1.55,1.55,0,0,1,1.6784,1.3618v7.29h-5.77Z"/><path class="c" d="M4.0533,15.3825H63.0752a3.3665,3.3665,0,0,1,3.3574,3.3568V46.1172a3.3663,3.3663,0,0,1-3.3574,3.3568H50.6974V40.2112H16.4308V49.474H4.0533A3.3661,3.3661,0,0,1,.696,46.1172V18.7393A3.3662,3.3662,0,0,1,4.0533,15.3825Z"/><path class="d" d="M13.8955,36.8862H53.2327a3.2435,3.2435,0,0,1,3.2347,3.2346h0a3.2434,3.2434,0,0,1-3.2347,3.2343H50.6974V40.2112H16.4308v3.1439H13.8955a3.2435,3.2435,0,0,1-3.2346-3.2343h0A3.2436,3.2436,0,0,1,13.8955,36.8862Z"/><rect class="e" x="16.4305" y="40.2112" width="34.2667" height="19.2285"/><line class="f" x1="21.5031" y1="49.8257" x2="45.6254" y2="49.8257"/><line class="f" x1="21.5031" y1="54.0219" x2="45.6254" y2="54.0219"/><line class="f" x1="21.5031" y1="45.6299" x2="45.6254" y2="45.6299"/><path class="g" d="M22.6316,28.6022h2.51A1.6809,1.6809,0,0,0,22.6316,28.6022Z"/><path class="g" d="M42.3092,28.6022h2.51A1.6808,1.6808,0,0,0,42.3092,28.6022Z"/><path class="h" d="M43.5652,26.5953A1.5754,1.5754,0,1,0,41.99,25.02,1.5782,1.5782,0,0,0,43.5652,26.5953Z"/><path class="i" d="M21.9884,25.4447a2.5427,2.5427,0,0,1,3.7965,0"/><path class="j" d="M28.2808,28.04h10.89A7.2935,7.2935,0,0,1,28.2808,28.04Z"/><path class="k" d="M53.2438,22.0967a1.7747,1.7747,0,1,0-1.7748-1.7745A1.7779,1.7779,0,0,0,53.2438,22.0967Z"/><path class="l" d="M59.6637,22.0967a1.7747,1.7747,0,1,0-1.7748-1.7745A1.7779,1.7779,0,0,0,59.6637,22.0967Z"/><path class="m" d="M3.9178,35.5148v-15.92a1.0991,1.0991,0,0,1,1.0959-1.0961h5.4281"/><path class="n" d="M63.1594,29.4072v15.92a1.0993,1.0993,0,0,1-1.0962,1.0961h-5.428"/></svg>