<svg xmlns="http://www.w3.org/2000/svg" viewBox="0 0 80.9817 68.5138"><defs><style>.a{fill:#fdf5a6;}.a,.b,.c,.j,.k{stroke:#231f20;}.a,.b,.c,.d,.e,.f,.g,.h,.i,.j,.k,.l{stroke-linecap:round;stroke-linejoin:round;fill-rule:evenodd;}.a,.b,.c,.j{stroke-width:1.391px;}.b{fill:#a0d7c7;}.c{fill:#b3e4fa;}.d,.e,.f,.g,.h,.i,.j,.k,.l{fill:none;}.d,.h{stroke:#6ec6aa;}.d,.e{stroke-width:1.3921px;}.e,.i{stroke:#89b3c6;}.f,.g{stroke:#d0cb86;}.f,.l{stroke-width:1.3912px;}.g{stroke-width:1.3915px;}.h,.i,.k{stroke-width:1.3918px;}.l{stroke:#f26971;}</style></defs><path class="a" d="M25.1324,50.4335a7.472,7.472,0,0,1-7.3426,7.48,7.2877,7.2877,0,1,1,3.0393-13.9124V17.968a2.152,2.152,0,0,1,1.9772-2.1442l32.5312-4.6292a2.1485,2.1485,0,0,1,2.4287,1.8238,2.0935,2.0935,0,0,1,.0216.3025l.0037,32.595c0,.3027.0085.6.0085.9008a7.2831,7.2831,0,1,1-4.3115-6.6526V23.4122L25.1324,27.447Z"/><path class="b" d="M13.0826,29.4287a6.3261,6.3261,0,0,1-6.2164,6.3318A6.17,6.17,0,1,1,9.44,23.9825V2.5277c0-1.6093,1.3544-1.9,2.5894-1.82,5.1849.3357,10.2722,2.721,11.6433,6.861.567,1.711-.2477,2.9126-2.1163,2.0152-2.2229-1.0673-8.4733-2.74-8.4733,1.3955Z"/><path class="c" d="M69.5189,61.4866a6.3259,6.3259,0,0,1-6.216,6.3317A6.17,6.17,0,1,1,65.8759,56.04V34.5855c0-1.6092,1.3544-1.9,2.5894-1.82,5.1849.3356,10.2722,2.721,11.6436,6.861.5666,1.711-.248,2.9126-2.1166,2.0151-2.223-1.0672-8.4734-2.74-8.4734,1.3955Z"/><path class="d" d="M3.23,29.666a3.5493,3.5493,0,0,1,3.5493-3.5493"/><path class="e" d="M59.6544,61.7148a3.55,3.55,0,0,1,3.5492-3.5493"/><path class="f" d="M13.226,50.78a4.5889,4.5889,0,0,1,4.5887-4.5887"/><path class="g" d="M45.9528,46.9176a4.5886,4.5886,0,0,1,4.5885-4.5884"/><path class="h" d="M12.2665,3.47a13.3583,13.3583,0,0,1,6.6866,2.0682"/><path class="i" d="M68.7423,35.4648a13.3635,13.3635,0,0,1,6.6869,2.0682"/><path class="j" d="M33.822,20.7587A7.0444,7.0444,0,0,0,44.2367,19.296"/><path class="k" d="M27.4565,19.122a2.4559,2.4559,0,0,1,3.6306-.51"/><path class="k" d="M46.2746,16.4789a2.4559,2.4559,0,0,1,3.6306-.51"/><path class="l" d="M30.8961,21.7174l-2.4.337A1.6233,1.6233,0,0,1,30.8961,21.7174Z"/><path class="l" d="M49.7136,19.0743l-2.4.3371A1.6236,1.6236,0,0,1,49.7136,19.0743Z"/></svg>