<svg xmlns="http://www.w3.org/2000/svg" viewBox="0 0 56.0562 72.398"><defs><style>.a{fill:#6ec6aa;}.a,.b,.c,.e,.g{stroke:#231f20;}.a,.b,.c,.d,.e,.g,.h,.i{stroke-linecap:round;stroke-linejoin:round;fill-rule:evenodd;}.a,.b,.c,.g,.h{stroke-width:1.3915px;}.b{fill:#f26d79;}.c{fill:#fffde7;}.d,.g,.h,.i{fill:none;}.d,.h{stroke:#c55058;}.d{stroke-width:1.404px;}.e{fill:#a0d7c7;}.e,.i{stroke-width:1.7977px;}.f{fill:#231f20;}.i{stroke:#6ec6aa;}</style></defs><path class="a" d="M24.0272,22.2693l2.3012,1.71L27.1133,22c.0448-9.8853-4.134-16.7472-10.8742-21.3042L14.01,2.646C20.2189,6.8432,24.0675,13.164,24.0272,22.2693Z"/><path class="b" d="M23.7577,70.6179C15.8694,74.4606,9.7129,67.332,6.0511,61.0827-1.6646,47.92-3.2775,23.21,16.5676,20.9218c5.315-.6132,7.3746,1.5423,11.4607,1.415,2.3256.0009,6.1456-2.0289,11.4622-1.415A18.9438,18.9438,0,0,1,46.4734,23.04l.0431.0228a4.0793,4.0793,0,0,0-1.891,5.5485,4.0778,4.0778,0,0,0,.23,7.72,4.0786,4.0786,0,0,0,4.492,5.8945,4.077,4.077,0,0,0,4.0533,3.6407,3.5364,3.5364,0,0,0,1.7039-.42,41.2386,41.2386,0,0,1-5.0975,15.6358C46.3444,67.332,40.1881,74.4606,32.3,70.6179,29.0718,69.0454,26.9914,69.0436,23.7577,70.6179Z"/><path class="c" d="M46.5165,23.0629a15.1985,15.1985,0,0,1,4.231,3.4358,4.0782,4.0782,0,0,0,.6545,7.534,4.0778,4.0778,0,0,0,3.5991,5.9929c.1146,0,.2282-.005.34-.0142a36.424,36.424,0,0,1-.2367,5.4355,3.5364,3.5364,0,0,1-1.7039.42,4.077,4.077,0,0,1-4.0533-3.6407,4.078,4.078,0,0,1-4.492-5.8945,4.0778,4.0778,0,0,1-.23-7.72,4.0793,4.0793,0,0,1,1.891-5.5485Z"/><path class="d" d="M13.9824,25.8365c-6.0231,2.1617-8.79,6.45-8.735,12.954"/><path class="e" d="M28.0051,21.2864c-1.43-13.5877,5.3566-19.4537,18.32-19.5135C47.07,14.7154,41.6553,21.8717,28.0051,21.2864Z"/><circle class="f" cx="16.9554" cy="48.4408" r="1.6815"/><circle class="f" cx="37.9604" cy="48.4408" r="1.6815"/><path class="g" d="M21.6447,51.6644a7.7866,7.7866,0,0,0,11.6252,0"/><path class="h" d="M18.2945,52.2644h-2.68A1.7951,1.7951,0,0,1,18.2945,52.2644Z"/><path class="h" d="M39.3,52.2644H36.62A1.7951,1.7951,0,0,1,39.3,52.2644Z"/><path class="i" d="M30.99,15.5694c.5351-5.4251,3.4914-8.5776,8.47-9.8283"/></svg>