<svg xmlns="http://www.w3.org/2000/svg" viewBox="0 0 49.8407 72.1875"><defs><style>.a{fill:#b3e4fa;}.a,.b,.c,.d,.e,.h,.i{stroke:#231f20;}.a,.f,.h,.i,.j,.k{stroke-linecap:round;stroke-linejoin:round;}.a,.d,.e{stroke-width:1.3918px;}.a,.b,.c,.d,.e,.f,.g,.h,.i{fill-rule:evenodd;}.b,.d{fill:#a0d7c7;}.b,.c,.d,.e{stroke-miterlimit:2.6131;}.b,.c{stroke-width:1.3915px;}.c,.e{fill:#fdf5a6;}.f,.h,.j,.k{fill:none;}.f{stroke:#f26971;}.f,.h,.i,.j{stroke-width:1.3921px;}.g,.i{fill:#231f20;}.j,.k{stroke:#89b3c6;}.k{stroke-width:3.0759px;}</style></defs><path class="a" d="M47.2805,45.7879,23.0505,21.6c-5.2673-5.26-4.257-5.237-4.2735,2.2082l-.0748,33.5506c.0269,1.0145-.0352,1.86.049,2.4684.1214.8677.7353,1.3011,1.5429.91a8.92,8.92,0,0,0,1.5509-1.1423l6.5667-5.5537,7.8293,17.45H47.2539L37.4681,49.8905l9.0714-.4062a15.3342,15.3342,0,0,0,1.7326-.152.9144.9144,0,0,0,.8671-1.0332,1.8758,1.8758,0,0,0-.4643-.9816C48.3163,46.8823,47.8217,46.3826,47.2805,45.7879Z"/><path class="b" d="M11.41.9968h0a2.0825,2.0825,0,0,1,2.7484,1.0338l3.5249,7.7805a2.0825,2.0825,0,0,1-1.0352,2.7479h0a2.0822,2.0822,0,0,1-2.7476-1.0343l-3.5249-7.78A2.0824,2.0824,0,0,1,11.41.9968Z"/><path class="c" d="M.8167,12.4686h0a2.0825,2.0825,0,0,1,2.6544-1.2557l8.0419,2.8783a2.0822,2.0822,0,0,1,1.2546,2.6549h0a2.0824,2.0824,0,0,1-2.6541,1.2552L2.0716,15.1227A2.082,2.082,0,0,1,.8167,12.4686Z"/><path class="d" d="M1.7119,26.853h0a2.0827,2.0827,0,0,1,1.1769-2.69l7.9549-3.111a2.0826,2.0826,0,0,1,2.69,1.1781h0a2.0822,2.0822,0,0,1-1.1772,2.6895L4.4014,28.03A2.0822,2.0822,0,0,1,1.7119,26.853Z"/><path class="b" d="M38.1065,11.466h0a2.0823,2.0823,0,0,0-2.7184-1.11l-7.8741,3.31a2.0828,2.0828,0,0,0-1.1089,2.7193h0a2.0825,2.0825,0,0,0,2.7184,1.1089l7.8741-3.31A2.0824,2.0824,0,0,0,38.1065,11.466Z"/><path class="e" d="M27.4165.8743h0A2.0826,2.0826,0,0,1,28.47,3.6154l-3.473,7.8035a2.0828,2.0828,0,0,1-2.7417,1.0523h0A2.0829,2.0829,0,0,1,21.2026,9.73l3.473-7.8035A2.0824,2.0824,0,0,1,27.4165.8743Z"/><path class="f" d="M23.0123,48.1262l1.7521-.5729A1.2343,1.2343,0,0,0,23.0123,48.1262Z"/><path class="f" d="M36.747,43.6344l1.7521-.5732A1.2343,1.2343,0,0,0,36.747,43.6344Z"/><path class="g" d="M36.4459,39.7478a1.1567,1.1567,0,1,1-.74,1.459A1.1567,1.1567,0,0,1,36.4459,39.7478Z"/><path class="h" d="M21.8424,46.0691a1.8675,1.8675,0,0,1,2.65-.8666"/><path class="i" d="M26.8271,46.4444l7.6011-2.486A5.3561,5.3561,0,0,1,26.8271,46.4444Z"/><line class="j" x1="21.2854" y1="24.8353" x2="21.2854" y2="41.0053"/><line class="k" x1="21.2854" y1="51.0266" x2="21.2854" y2="56.8841"/><line class="j" x1="35.9901" y1="52.7328" x2="43.3585" y2="69.2522"/></svg>