<svg xmlns="http://www.w3.org/2000/svg" viewBox="0 0 51.4995 63.3062"><defs><style>.a{fill:#b3e4fa;}.a,.b,.c,.e,.f,.j{stroke:#231f20;}.a,.b,.c,.j{stroke-miterlimit:2.6131;}.a,.c,.h,.i,.j{stroke-width:1.3921px;}.a,.d,.e,.f,.g,.h,.i,.j{fill-rule:evenodd;}.b{fill:#a0d7c7;}.b,.f,.g{stroke-width:1.3918px;}.c,.j{fill:#fdf5a6;}.d{fill:#231f20;}.e,.f,.g,.h,.i{fill:none;stroke-linecap:round;stroke-linejoin:round;}.e{stroke-width:1.3912px;}.g{stroke:#f26971;}.h{stroke:#d0cb86;}.i{stroke:#6ec6aa;}</style></defs><path class="a" d="M39.444,46.7323a25.1227,25.1227,0,0,1,9.8842,12.492c.91,2.53.0433,3.3859-2.4044,3.3859H4.7508c-2.71,0-3.5532-.7568-2.5035-3.5943a25.13,25.13,0,0,1,9.8081-12.2836,25.0653,25.0653,0,0,0,27.3886,0Z"/><circle class="b" cx="25.7497" cy="25.7499" r="25.054" transform="translate(-7.8647 39.7561) rotate(-67.6204)"/><path class="a" d="M25.75,41.72a15.97,15.97,0,1,0-15.97-15.97A16.001,16.001,0,0,0,25.75,41.72Z"/><circle class="c" cx="25.7496" cy="25.7502" r="10.6104"/><path class="d" d="M35.7505,55.1631a1.5754,1.5754,0,1,0-1.5752-1.5752A1.5784,1.5784,0,0,0,35.7505,55.1631Z"/><path class="e" d="M20.4661,56.6079a7.2943,7.2943,0,0,0,10.89,0"/><path class="f" d="M14.174,54.0128a2.5427,2.5427,0,0,1,3.7965,0"/><path class="g" d="M17.3273,57.1694h-2.51A1.6814,1.6814,0,0,1,17.3273,57.1694Z"/><path class="g" d="M37.0048,57.1694h-2.51A1.6813,1.6813,0,0,1,37.0048,57.1694Z"/><path class="h" d="M32.534,25.41a6.97,6.97,0,0,1-6.9692,6.97"/><path class="i" d="M6.6455,16.5149A21.2721,21.2721,0,0,1,19.3127,5.53"/><path class="j" d="M25.7493,7.0767a1.7748,1.7748,0,1,0-1.7748-1.7748A1.7784,1.7784,0,0,0,25.7493,7.0767Z"/></svg>