<svg xmlns="http://www.w3.org/2000/svg" viewBox="0 0 72.1628 56.9167"><defs><style>.a,.b{fill:#b3e4fa;}.a,.b,.c,.d,.e,.f,.g,.h,.j,.k,.n,.o{stroke:#231f20;}.a,.b,.c,.d,.e,.f,.g,.h,.i,.l,.n,.o{stroke-linecap:round;stroke-linejoin:round;}.a,.l,.o{stroke-width:1.3921px;}.b,.e{stroke-width:1.3918px;}.c{fill:#fdf5a6;}.c,.f,.j,.k{stroke-width:1.3915px;}.c,.d,.e,.f,.i,.k,.l,.m,.n,.o{fill-rule:evenodd;}.d,.k{fill:#f26d79;}.d,.h{stroke-width:1.3912px;}.e{fill:#fffde7;}.f{fill:#89b3c6;}.g,.h,.i,.l,.n,.o{fill:none;}.g,.n{stroke-width:1.391px;}.i,.l{stroke:#c55058;}.i{stroke-width:1.4134px;}.j{fill:#c55058;}.j,.k{stroke-miterlimit:2.6131;}.m{fill:#231f20;}</style></defs><rect class="a" x="34.1137" y="6.8437" width="11.6122" height="17.9013" transform="translate(0.524 32.8536) rotate(-45)"/><rect class="b" x="38.0101" y="6.8436" width="3.8202" height="17.9011" transform="translate(0.5245 32.8544) rotate(-45.0009)"/><polygon class="c" points="41.391 25.477 16.796 50.072 15.794 44.451 11.241 44.516 11.241 39.897 5.642 38.917 30.237 14.323 41.391 25.477"/><path class="d" d="M46.465,1.3866l7.8627,7.8628a2.3719,2.3719,0,0,1,0,3.346L49.63,17.2932l-.942-.9419-.0164-.0165-.0165-.0164L39.3957,7.059l-.0165-.0164-.0164-.0164L38.42,6.0836l4.6978-4.6978A2.3727,2.3727,0,0,1,46.465,1.3866Z"/><polygon class="e" points="5.824 38.95 5.662 39.023 0.696 55.275 16.729 50.046 16.776 49.96 15.794 44.451 11.241 44.516 11.241 39.897 5.824 38.95"/><polygon class="f" points="2.642 48.909 0.696 55.275 6.963 53.231 2.642 48.909"/><line class="g" x1="33.3437" y1="17.861" x2="11.2978" y2="39.9069"/><line class="h" x1="37.853" y1="22.3704" x2="15.8072" y2="44.4165"/><path class="i" d="M42.1889,6.2993l2.05-2.065c.4729-.4751.5247-.4232,1.1305.1826L47.196,6.2438"/><path class="j" d="M32.8428,33.7155H66.2922A5.1749,5.1749,0,0,1,71.4671,38.89V51.0462a5.1747,5.1747,0,0,1-5.1747,5.1747h-33.45a5.1749,5.1749,0,0,1-5.1749-5.1749V38.89A5.1749,5.1749,0,0,1,32.8428,33.7155Z"/><path class="k" d="M35.1482,33.7155h31.144A5.19,5.19,0,0,1,71.4671,38.89V51.0462a5.1914,5.1914,0,0,1-5.1749,5.1747H35.1482Z"/><path class="l" d="M68.1526,49.0526c.1244,3.68-.9749,4.0691-4.0887,3.9679"/><path class="m" d="M63.6758,44.5869a1.6331,1.6331,0,1,0-1.633-1.633A1.6363,1.6363,0,0,0,63.6758,44.5869Z"/><path class="n" d="M47.8316,46.0845a7.5617,7.5617,0,0,0,11.2895,0"/><path class="o" d="M41.3093,43.3944a2.6358,2.6358,0,0,1,3.9354,0"/><path class="l" d="M44.578,46.6667H41.976A1.743,1.743,0,0,1,44.578,46.6667Z"/><path class="l" d="M64.9761,46.6667h-2.602A1.743,1.743,0,0,1,64.9761,46.6667Z"/></svg>