<svg xmlns="http://www.w3.org/2000/svg" viewBox="0 0 69.5134 63.1279"><defs><style>.a,.f{fill:#fdf5a6;}.a,.b,.c,.d,.e,.f,.h,.i{stroke:#231f20;}.a,.b,.c,.d,.e,.f,.g,.h,.i{stroke-linecap:round;stroke-linejoin:round;}.a,.g,.i{stroke-width:1.3918px;}.b{fill:#6ec6aa;stroke-width:1.421px;}.c{fill:#fffde7;stroke-width:2.0784px;}.c,.d,.e,.g,.h,.i{fill-rule:evenodd;}.d,.e{fill:#d0cb86;}.d{stroke-width:1.8567px;}.e{stroke-width:1.8564px;}.f{stroke-width:1.3921px;}.g,.h{fill:none;}.g{stroke:#f26971;}.h{stroke-width:1.3915px;}.i{fill:#231f20;}</style></defs><rect class="a" x="3.3943" y="0.6959" width="62.7253" height="45.5264" rx="2.1583"/><path class="b" d="M10.2779,5.8666h48.958a1.77,1.77,0,0,1,1.77,1.77V41.4315a1.77,1.77,0,0,1-1.77,1.77H10.2779a1.77,1.77,0,0,1-1.77-1.77V7.6368A1.77,1.77,0,0,1,10.2779,5.8666Z"/><path class="c" d="M17.3883,40.8274h7.3083a1.9162,1.9162,0,0,0,1.91-1.91h0a1.9162,1.9162,0,0,0-1.91-1.9108H17.3883a1.9161,1.9161,0,0,0-1.91,1.9108h0A1.9162,1.9162,0,0,0,17.3883,40.8274Z"/><polygon class="d" points="19.514 44.212 26.372 44.212 16.389 62.2 9.532 62.2 19.514 44.212"/><polygon class="e" points="50 44.212 43.143 44.212 53.125 62.2 59.982 62.2 50 44.212"/><rect class="f" x="0.696" y="40.8274" width="68.1213" height="5.7322"/><path class="g" d="M22.81,23.9519h2.7029A1.81,1.81,0,0,0,22.81,23.9519Z"/><path class="g" d="M44,23.9519h2.7031A1.81,1.81,0,0,0,44,23.9519Z"/><path class="h" d="M22.1177,20.5518a2.7382,2.7382,0,0,1,4.0881,0"/><path class="h" d="M43.308,20.5518a2.7383,2.7383,0,0,1,4.0882,0"/><path class="i" d="M28.8933,23.347H40.6205A7.8545,7.8545,0,0,1,28.8933,23.347Z"/></svg>